<?xml version="1.0" encoding="UTF-8" standalone="no"?>
<svg
   width="500"
   zoomAndPan="magnify"
   viewBox="0 0 375 374.999991"
   height="500"
   preserveAspectRatio="xMidYMid meet"
   version="1.0"
   id="svg139"
   sodipodi:docname="logo_text.svg"
   inkscape:version="1.3 (0e150ed6c4, 2023-07-21)"
   xmlns:inkscape="http://www.inkscape.org/namespaces/inkscape"
   xmlns:sodipodi="http://sodipodi.sourceforge.net/DTD/sodipodi-0.dtd"
   xmlns="http://www.w3.org/2000/svg"
   xmlns:svg="http://www.w3.org/2000/svg">
  <sodipodi:namedview
     id="namedview139"
     pagecolor="#ffffff"
     bordercolor="#000000"
     borderopacity="0.25"
     inkscape:showpageshadow="2"
     inkscape:pageopacity="0.0"
     inkscape:pagecheckerboard="0"
     inkscape:deskcolor="#d1d1d1"
     inkscape:zoom="1.626"
     inkscape:cx="254.61255"
     inkscape:cy="236.46986"
     inkscape:window-width="1920"
     inkscape:window-height="1009"
     inkscape:window-x="1912"
     inkscape:window-y="-8"
     inkscape:window-maximized="1"
     inkscape:current-layer="svg139" />
  <defs
     id="defs1">
    <g
       id="g1" />
  </defs>
  <g
     fill="#ffc925"
     fill-opacity="0.4"
     id="g4">
    <g
       transform="translate(16.2475, 215.666549)"
       id="g3">
      <g
         id="g2">
        <path
           d="M 14.515625 -33.515625 C 16.296875 -33.515625 18.035156 -33.253906 19.734375 -32.734375 C 21.441406 -32.210938 22.707031 -31.695312 23.53125 -31.1875 L 24.734375 -30.390625 L 21.703125 -24.40625 C 21.460938 -24.570312 21.128906 -24.78125 20.703125 -25.03125 C 20.273438 -25.28125 19.472656 -25.617188 18.296875 -26.046875 C 17.128906 -26.472656 16.039062 -26.6875 15.03125 -26.6875 C 13.78125 -26.6875 12.816406 -26.421875 12.140625 -25.890625 C 11.460938 -25.359375 11.125 -24.640625 11.125 -23.734375 C 11.125 -23.285156 11.285156 -22.867188 11.609375 -22.484375 C 11.929688 -22.097656 12.476562 -21.679688 13.25 -21.234375 C 14.019531 -20.796875 14.695312 -20.441406 15.28125 -20.171875 C 15.863281 -19.910156 16.765625 -19.515625 17.984375 -18.984375 C 20.117188 -18.078125 21.9375 -16.847656 23.4375 -15.296875 C 24.9375 -13.742188 25.6875 -11.984375 25.6875 -10.015625 C 25.6875 -8.128906 25.347656 -6.476562 24.671875 -5.0625 C 23.992188 -3.65625 23.0625 -2.550781 21.875 -1.75 C 20.695312 -0.957031 19.390625 -0.367188 17.953125 0.015625 C 16.515625 0.398438 14.957031 0.59375 13.28125 0.59375 C 11.84375 0.59375 10.429688 0.445312 9.046875 0.15625 C 7.671875 -0.132812 6.515625 -0.5 5.578125 -0.9375 C 4.648438 -1.375 3.8125 -1.804688 3.0625 -2.234375 C 2.320312 -2.660156 1.78125 -3.019531 1.4375 -3.3125 L 0.921875 -3.75 L 4.671875 -10.046875 C 4.984375 -9.785156 5.421875 -9.445312 5.984375 -9.03125 C 6.546875 -8.625 7.535156 -8.070312 8.953125 -7.375 C 10.378906 -6.6875 11.632812 -6.34375 12.71875 -6.34375 C 15.882812 -6.34375 17.46875 -7.421875 17.46875 -9.578125 C 17.46875 -10.023438 17.351562 -10.441406 17.125 -10.828125 C 16.90625 -11.210938 16.507812 -11.597656 15.9375 -11.984375 C 15.363281 -12.367188 14.859375 -12.675781 14.421875 -12.90625 C 13.984375 -13.132812 13.265625 -13.476562 12.265625 -13.9375 C 11.265625 -14.40625 10.523438 -14.757812 10.046875 -15 C 8.054688 -15.976562 6.515625 -17.207031 5.421875 -18.6875 C 4.335938 -20.164062 3.796875 -21.753906 3.796875 -23.453125 C 3.796875 -26.410156 4.882812 -28.828125 7.0625 -30.703125 C 9.238281 -32.578125 11.722656 -33.515625 14.515625 -33.515625 Z M 14.515625 -33.515625 "
           id="path1" />
      </g>
    </g>
  </g>
  <g
     fill="#ffc925"
     fill-opacity="0.4"
     id="g7">
    <g
       transform="translate(44.60884, 215.666549)"
       id="g6">
      <g
         id="g5">
        <path
           d="M 29.59375 0 L 28.046875 -19.5 L 27.84375 -19.5 L 21.109375 -0.203125 L 16.640625 -0.203125 L 9.890625 -19.5 L 9.6875 -19.5 L 8.140625 0 L 0.640625 0 L 3.59375 -32.90625 L 11.5625 -32.90625 L 18.875 -13.921875 L 26.171875 -32.90625 L 34.140625 -32.90625 L 37.09375 0 Z M 29.59375 0 "
           id="path4" />
      </g>
    </g>
  </g>
  <g
     fill="#ffc925"
     fill-opacity="0.4"
     id="g10">
    <g
       transform="translate(83.899692, 215.666549)"
       id="g9">
      <g
         id="g8">
        <path
           d="M 19.109375 -32.90625 L 32.390625 0 L 24.328125 0 L 21.90625 -6.578125 L 9.375 -6.578125 L 6.9375 0 L -1.109375 0 L 12.171875 -32.90625 Z M 19.34375 -13.15625 L 15.671875 -22.734375 L 15.59375 -22.734375 L 11.921875 -13.15625 Z M 19.34375 -13.15625 "
           id="path7" />
      </g>
    </g>
  </g>
  <g
     fill="#ffc925"
     fill-opacity="0.4"
     id="g13">
    <g
       transform="translate(116.728577, 215.666549)"
       id="g12">
      <g
         id="g11">
        <path
           d="M 2.390625 -32.90625 L 14.15625 -32.90625 C 17.320312 -32.90625 19.898438 -32.0625 21.890625 -30.375 C 23.890625 -28.6875 24.890625 -26.273438 24.890625 -23.140625 C 24.890625 -20.710938 24.285156 -18.679688 23.078125 -17.046875 C 21.867188 -15.410156 20.226562 -14.265625 18.15625 -13.609375 L 29.484375 0 L 19.9375 0 L 9.890625 -13 L 9.890625 0 L 2.390625 0 Z M 9.890625 -18.3125 L 10.765625 -18.3125 C 11.460938 -18.3125 12.050781 -18.320312 12.53125 -18.34375 C 13.007812 -18.375 13.550781 -18.46875 14.15625 -18.625 C 14.769531 -18.789062 15.265625 -19.019531 15.640625 -19.3125 C 16.015625 -19.601562 16.332031 -20.023438 16.59375 -20.578125 C 16.863281 -21.140625 17 -21.816406 17 -22.609375 C 17 -23.410156 16.863281 -24.085938 16.59375 -24.640625 C 16.332031 -25.203125 16.015625 -25.628906 15.640625 -25.921875 C 15.265625 -26.222656 14.769531 -26.453125 14.15625 -26.609375 C 13.550781 -26.765625 13.007812 -26.851562 12.53125 -26.875 C 12.050781 -26.90625 11.460938 -26.921875 10.765625 -26.921875 L 9.890625 -26.921875 Z M 9.890625 -18.3125 "
           id="path10" />
      </g>
    </g>
  </g>
  <g
     fill="#ffc925"
     fill-opacity="0.4"
     id="g16">
    <g
       transform="translate(146.845017, 215.666549)"
       id="g15">
      <g
         id="g14">
        <path
           d="M 0.3125 -26.328125 L 0.3125 -32.90625 L 23.453125 -32.90625 L 23.453125 -26.328125 L 15.640625 -26.328125 L 15.640625 0 L 8.140625 0 L 8.140625 -26.328125 Z M 0.3125 -26.328125 "
           id="path13" />
      </g>
    </g>
  </g>
  <g
     fill="#ffc925"
     fill-opacity="1"
     id="g19"
     style="stroke:#000000;stroke-opacity:1;stroke-width:1.74974998;stroke-dasharray:none">
    <g
       transform="translate(14.484128, 213.903169)"
       id="g18"
       style="stroke:#000000;stroke-opacity:1;stroke-width:1.74974998;stroke-dasharray:none">
      <g
         id="g17"
         style="stroke:#000000;stroke-opacity:1;stroke-width:1.74974998;stroke-dasharray:none">
        <path
           d="M 14.515625 -33.515625 C 16.296875 -33.515625 18.035156 -33.253906 19.734375 -32.734375 C 21.441406 -32.210938 22.707031 -31.695312 23.53125 -31.1875 L 24.734375 -30.390625 L 21.703125 -24.40625 C 21.460938 -24.570312 21.128906 -24.78125 20.703125 -25.03125 C 20.273438 -25.28125 19.472656 -25.617188 18.296875 -26.046875 C 17.128906 -26.472656 16.039062 -26.6875 15.03125 -26.6875 C 13.78125 -26.6875 12.816406 -26.421875 12.140625 -25.890625 C 11.460938 -25.359375 11.125 -24.640625 11.125 -23.734375 C 11.125 -23.285156 11.285156 -22.867188 11.609375 -22.484375 C 11.929688 -22.097656 12.476562 -21.679688 13.25 -21.234375 C 14.019531 -20.796875 14.695312 -20.441406 15.28125 -20.171875 C 15.863281 -19.910156 16.765625 -19.515625 17.984375 -18.984375 C 20.117188 -18.078125 21.9375 -16.847656 23.4375 -15.296875 C 24.9375 -13.742188 25.6875 -11.984375 25.6875 -10.015625 C 25.6875 -8.128906 25.347656 -6.476562 24.671875 -5.0625 C 23.992188 -3.65625 23.0625 -2.550781 21.875 -1.75 C 20.695312 -0.957031 19.390625 -0.367188 17.953125 0.015625 C 16.515625 0.398438 14.957031 0.59375 13.28125 0.59375 C 11.84375 0.59375 10.429688 0.445312 9.046875 0.15625 C 7.671875 -0.132812 6.515625 -0.5 5.578125 -0.9375 C 4.648438 -1.375 3.8125 -1.804688 3.0625 -2.234375 C 2.320312 -2.660156 1.78125 -3.019531 1.4375 -3.3125 L 0.921875 -3.75 L 4.671875 -10.046875 C 4.984375 -9.785156 5.421875 -9.445312 5.984375 -9.03125 C 6.546875 -8.625 7.535156 -8.070312 8.953125 -7.375 C 10.378906 -6.6875 11.632812 -6.34375 12.71875 -6.34375 C 15.882812 -6.34375 17.46875 -7.421875 17.46875 -9.578125 C 17.46875 -10.023438 17.351562 -10.441406 17.125 -10.828125 C 16.90625 -11.210938 16.507812 -11.597656 15.9375 -11.984375 C 15.363281 -12.367188 14.859375 -12.675781 14.421875 -12.90625 C 13.984375 -13.132812 13.265625 -13.476562 12.265625 -13.9375 C 11.265625 -14.40625 10.523438 -14.757812 10.046875 -15 C 8.054688 -15.976562 6.515625 -17.207031 5.421875 -18.6875 C 4.335938 -20.164062 3.796875 -21.753906 3.796875 -23.453125 C 3.796875 -26.410156 4.882812 -28.828125 7.0625 -30.703125 C 9.238281 -32.578125 11.722656 -33.515625 14.515625 -33.515625 Z M 14.515625 -33.515625 "
           id="path16"
           style="stroke:#000000;stroke-opacity:1;stroke-width:1.74974998;stroke-dasharray:none" />
      </g>
    </g>
  </g>
  <g
     fill="#ffc925"
     fill-opacity="1"
     id="g22"
     style="stroke:#000000;stroke-opacity:1;stroke-width:1.74974998;stroke-dasharray:none">
    <g
       transform="translate(42.845468, 213.903169)"
       id="g21"
       style="stroke:#000000;stroke-opacity:1;stroke-width:1.74974998;stroke-dasharray:none">
      <g
         id="g20"
         style="stroke:#000000;stroke-opacity:1;stroke-width:1.74974998;stroke-dasharray:none">
        <path
           d="M 29.59375 0 L 28.046875 -19.5 L 27.84375 -19.5 L 21.109375 -0.203125 L 16.640625 -0.203125 L 9.890625 -19.5 L 9.6875 -19.5 L 8.140625 0 L 0.640625 0 L 3.59375 -32.90625 L 11.5625 -32.90625 L 18.875 -13.921875 L 26.171875 -32.90625 L 34.140625 -32.90625 L 37.09375 0 Z M 29.59375 0 "
           id="path19"
           style="stroke:#000000;stroke-opacity:1;stroke-width:1.74974998;stroke-dasharray:none" />
      </g>
    </g>
  </g>
  <g
     fill="#ffc925"
     fill-opacity="1"
     id="g25"
     style="stroke:#000000;stroke-opacity:1;stroke-width:1.74974998;stroke-dasharray:none">
    <g
       transform="translate(82.136321, 213.903169)"
       id="g24"
       style="stroke:#000000;stroke-opacity:1;stroke-width:1.74974998;stroke-dasharray:none">
      <g
         id="g23"
         style="stroke:#000000;stroke-opacity:1;stroke-width:1.74974998;stroke-dasharray:none">
        <path
           d="M 19.109375 -32.90625 L 32.390625 0 L 24.328125 0 L 21.90625 -6.578125 L 9.375 -6.578125 L 6.9375 0 L -1.109375 0 L 12.171875 -32.90625 Z M 19.34375 -13.15625 L 15.671875 -22.734375 L 15.59375 -22.734375 L 11.921875 -13.15625 Z M 19.34375 -13.15625 "
           id="path22"
           style="stroke:#000000;stroke-opacity:1;stroke-width:1.74974998;stroke-dasharray:none" />
      </g>
    </g>
  </g>
  <g
     fill="#ffc925"
     fill-opacity="1"
     id="g28"
     style="stroke:#000000;stroke-opacity:1;stroke-width:1.74974998;stroke-dasharray:none">
    <g
       transform="translate(114.965205, 213.903169)"
       id="g27"
       style="stroke:#000000;stroke-opacity:1;stroke-width:1.74974998;stroke-dasharray:none">
      <g
         id="g26"
         style="stroke:#000000;stroke-opacity:1;stroke-width:1.74974998;stroke-dasharray:none">
        <path
           d="M 2.390625 -32.90625 L 14.15625 -32.90625 C 17.320312 -32.90625 19.898438 -32.0625 21.890625 -30.375 C 23.890625 -28.6875 24.890625 -26.273438 24.890625 -23.140625 C 24.890625 -20.710938 24.285156 -18.679688 23.078125 -17.046875 C 21.867188 -15.410156 20.226562 -14.265625 18.15625 -13.609375 L 29.484375 0 L 19.9375 0 L 9.890625 -13 L 9.890625 0 L 2.390625 0 Z M 9.890625 -18.3125 L 10.765625 -18.3125 C 11.460938 -18.3125 12.050781 -18.320312 12.53125 -18.34375 C 13.007812 -18.375 13.550781 -18.46875 14.15625 -18.625 C 14.769531 -18.789062 15.265625 -19.019531 15.640625 -19.3125 C 16.015625 -19.601562 16.332031 -20.023438 16.59375 -20.578125 C 16.863281 -21.140625 17 -21.816406 17 -22.609375 C 17 -23.410156 16.863281 -24.085938 16.59375 -24.640625 C 16.332031 -25.203125 16.015625 -25.628906 15.640625 -25.921875 C 15.265625 -26.222656 14.769531 -26.453125 14.15625 -26.609375 C 13.550781 -26.765625 13.007812 -26.851562 12.53125 -26.875 C 12.050781 -26.90625 11.460938 -26.921875 10.765625 -26.921875 L 9.890625 -26.921875 Z M 9.890625 -18.3125 "
           id="path25"
           style="stroke:#000000;stroke-opacity:1;stroke-width:1.74974998;stroke-dasharray:none" />
      </g>
    </g>
  </g>
  <g
     fill="#ffc925"
     fill-opacity="1"
     id="g31"
     style="stroke:#000000;stroke-opacity:1;stroke-width:1.74974998;stroke-dasharray:none">
    <g
       transform="translate(145.081645, 213.903169)"
       id="g30"
       style="stroke:#000000;stroke-opacity:1;stroke-width:1.74974998;stroke-dasharray:none">
      <g
         id="g29"
         style="stroke:#000000;stroke-opacity:1;stroke-width:1.74974998;stroke-dasharray:none">
        <path
           d="M 0.3125 -26.328125 L 0.3125 -32.90625 L 23.453125 -32.90625 L 23.453125 -26.328125 L 15.640625 -26.328125 L 15.640625 0 L 8.140625 0 L 8.140625 -26.328125 Z M 0.3125 -26.328125 "
           id="path28"
           style="stroke:#000000;stroke-opacity:1;stroke-width:1.74974998;stroke-dasharray:none" />
      </g>
    </g>
  </g>
  <g
     fill="#ffc925"
     fill-opacity="0.4"
     id="g34">
    <g
       transform="translate(172.182428, 215.666549)"
       id="g33">
      <g
         id="g32">
        <path
           d="M 29.59375 0 L 28.046875 -19.5 L 27.84375 -19.5 L 21.109375 -0.203125 L 16.640625 -0.203125 L 9.890625 -19.5 L 9.6875 -19.5 L 8.140625 0 L 0.640625 0 L 3.59375 -32.90625 L 11.5625 -32.90625 L 18.875 -13.921875 L 26.171875 -32.90625 L 34.140625 -32.90625 L 37.09375 0 Z M 29.59375 0 "
           id="path31" />
      </g>
    </g>
  </g>
  <g
     fill="#ffc925"
     fill-opacity="0.4"
     id="g37">
    <g
       transform="translate(211.47328, 215.666549)"
       id="g36">
      <g
         id="g35">
        <path
           d="M 19.109375 -32.90625 L 32.390625 0 L 24.328125 0 L 21.90625 -6.578125 L 9.375 -6.578125 L 6.9375 0 L -1.109375 0 L 12.171875 -32.90625 Z M 19.34375 -13.15625 L 15.671875 -22.734375 L 15.59375 -22.734375 L 11.921875 -13.15625 Z M 19.34375 -13.15625 "
           id="path34" />
      </g>
    </g>
  </g>
  <g
     fill="#ffc925"
     fill-opacity="0.4"
     id="g40">
    <g
       transform="translate(244.302162, 215.666549)"
       id="g39">
      <g
         id="g38">
        <path
           d="M 0.3125 -26.328125 L 0.3125 -32.90625 L 23.453125 -32.90625 L 23.453125 -26.328125 L 15.640625 -26.328125 L 15.640625 0 L 8.140625 0 L 8.140625 -26.328125 Z M 0.3125 -26.328125 "
           id="path37" />
      </g>
    </g>
  </g>
  <g
     fill="#ffc925"
     fill-opacity="0.4"
     id="g43">
    <g
       transform="translate(269.631964, 215.666549)"
       id="g42">
      <g
         id="g41">
        <path
           d="M 27.6875 -32.90625 L 27.6875 -11.6875 C 27.6875 -7.644531 26.59375 -4.585938 24.40625 -2.515625 C 22.226562 -0.441406 19.035156 0.59375 14.828125 0.59375 C 10.628906 0.59375 7.441406 -0.441406 5.265625 -2.515625 C 3.085938 -4.585938 2 -7.644531 2 -11.6875 L 2 -32.90625 L 9.5 -32.90625 L 9.5 -13.875 C 9.5 -11.21875 9.914062 -9.367188 10.75 -8.328125 C 11.582031 -7.296875 12.941406 -6.78125 14.828125 -6.78125 C 16.722656 -6.78125 18.085938 -7.296875 18.921875 -8.328125 C 19.765625 -9.367188 20.1875 -11.21875 20.1875 -13.875 L 20.1875 -32.90625 Z M 27.6875 -32.90625 "
           id="path40" />
      </g>
    </g>
  </g>
  <g
     fill="#ffc925"
     fill-opacity="0.4"
     id="g46">
    <g
       transform="translate(300.865292, 215.666549)"
       id="g45">
      <g
         id="g44">
        <path
           d="M 2.390625 -32.90625 L 14.15625 -32.90625 C 17.320312 -32.90625 19.898438 -32.0625 21.890625 -30.375 C 23.890625 -28.6875 24.890625 -26.273438 24.890625 -23.140625 C 24.890625 -20.710938 24.285156 -18.679688 23.078125 -17.046875 C 21.867188 -15.410156 20.226562 -14.265625 18.15625 -13.609375 L 29.484375 0 L 19.9375 0 L 9.890625 -13 L 9.890625 0 L 2.390625 0 Z M 9.890625 -18.3125 L 10.765625 -18.3125 C 11.460938 -18.3125 12.050781 -18.320312 12.53125 -18.34375 C 13.007812 -18.375 13.550781 -18.46875 14.15625 -18.625 C 14.769531 -18.789062 15.265625 -19.019531 15.640625 -19.3125 C 16.015625 -19.601562 16.332031 -20.023438 16.59375 -20.578125 C 16.863281 -21.140625 17 -21.816406 17 -22.609375 C 17 -23.410156 16.863281 -24.085938 16.59375 -24.640625 C 16.332031 -25.203125 16.015625 -25.628906 15.640625 -25.921875 C 15.265625 -26.222656 14.769531 -26.453125 14.15625 -26.609375 C 13.550781 -26.765625 13.007812 -26.851562 12.53125 -26.875 C 12.050781 -26.90625 11.460938 -26.921875 10.765625 -26.921875 L 9.890625 -26.921875 Z M 9.890625 -18.3125 "
           id="path43" />
      </g>
    </g>
  </g>
  <g
     fill="#ffc925"
     fill-opacity="0.4"
     id="g49">
    <g
       transform="translate(330.981731, 215.666549)"
       id="g48">
      <g
         id="g47">
        <path
           d="M 19.109375 -32.90625 L 32.390625 0 L 24.328125 0 L 21.90625 -6.578125 L 9.375 -6.578125 L 6.9375 0 L -1.109375 0 L 12.171875 -32.90625 Z M 19.34375 -13.15625 L 15.671875 -22.734375 L 15.59375 -22.734375 L 11.921875 -13.15625 Z M 19.34375 -13.15625 "
           id="path46" />
      </g>
    </g>
  </g>
  <g
     fill="#272747"
     fill-opacity="1"
     id="g52">
    <g
       transform="translate(170.419056, 213.903169)"
       id="g51">
      <g
         id="g50">
        <path
           d="M 29.59375 0 L 28.046875 -19.5 L 27.84375 -19.5 L 21.109375 -0.203125 L 16.640625 -0.203125 L 9.890625 -19.5 L 9.6875 -19.5 L 8.140625 0 L 0.640625 0 L 3.59375 -32.90625 L 11.5625 -32.90625 L 18.875 -13.921875 L 26.171875 -32.90625 L 34.140625 -32.90625 L 37.09375 0 Z M 29.59375 0 "
           id="path49" />
      </g>
    </g>
  </g>
  <g
     fill="#272747"
     fill-opacity="1"
     id="g55">
    <g
       transform="translate(209.709908, 213.903169)"
       id="g54">
      <g
         id="g53">
        <path
           d="M 19.109375 -32.90625 L 32.390625 0 L 24.328125 0 L 21.90625 -6.578125 L 9.375 -6.578125 L 6.9375 0 L -1.109375 0 L 12.171875 -32.90625 Z M 19.34375 -13.15625 L 15.671875 -22.734375 L 15.59375 -22.734375 L 11.921875 -13.15625 Z M 19.34375 -13.15625 "
           id="path52" />
      </g>
    </g>
  </g>
  <g
     fill="#272747"
     fill-opacity="1"
     id="g58">
    <g
       transform="translate(242.53879, 213.903169)"
       id="g57">
      <g
         id="g56">
        <path
           d="M 0.3125 -26.328125 L 0.3125 -32.90625 L 23.453125 -32.90625 L 23.453125 -26.328125 L 15.640625 -26.328125 L 15.640625 0 L 8.140625 0 L 8.140625 -26.328125 Z M 0.3125 -26.328125 "
           id="path55" />
      </g>
    </g>
  </g>
  <g
     fill="#272747"
     fill-opacity="1"
     id="g61">
    <g
       transform="translate(267.868592, 213.903169)"
       id="g60">
      <g
         id="g59">
        <path
           d="M 27.6875 -32.90625 L 27.6875 -11.6875 C 27.6875 -7.644531 26.59375 -4.585938 24.40625 -2.515625 C 22.226562 -0.441406 19.035156 0.59375 14.828125 0.59375 C 10.628906 0.59375 7.441406 -0.441406 5.265625 -2.515625 C 3.085938 -4.585938 2 -7.644531 2 -11.6875 L 2 -32.90625 L 9.5 -32.90625 L 9.5 -13.875 C 9.5 -11.21875 9.914062 -9.367188 10.75 -8.328125 C 11.582031 -7.296875 12.941406 -6.78125 14.828125 -6.78125 C 16.722656 -6.78125 18.085938 -7.296875 18.921875 -8.328125 C 19.765625 -9.367188 20.1875 -11.21875 20.1875 -13.875 L 20.1875 -32.90625 Z M 27.6875 -32.90625 "
           id="path58" />
      </g>
    </g>
  </g>
  <g
     fill="#272747"
     fill-opacity="1"
     id="g64">
    <g
       transform="translate(299.10192, 213.903169)"
       id="g63">
      <g
         id="g62">
        <path
           d="M 2.390625 -32.90625 L 14.15625 -32.90625 C 17.320312 -32.90625 19.898438 -32.0625 21.890625 -30.375 C 23.890625 -28.6875 24.890625 -26.273438 24.890625 -23.140625 C 24.890625 -20.710938 24.285156 -18.679688 23.078125 -17.046875 C 21.867188 -15.410156 20.226562 -14.265625 18.15625 -13.609375 L 29.484375 0 L 19.9375 0 L 9.890625 -13 L 9.890625 0 L 2.390625 0 Z M 9.890625 -18.3125 L 10.765625 -18.3125 C 11.460938 -18.3125 12.050781 -18.320312 12.53125 -18.34375 C 13.007812 -18.375 13.550781 -18.46875 14.15625 -18.625 C 14.769531 -18.789062 15.265625 -19.019531 15.640625 -19.3125 C 16.015625 -19.601562 16.332031 -20.023438 16.59375 -20.578125 C 16.863281 -21.140625 17 -21.816406 17 -22.609375 C 17 -23.410156 16.863281 -24.085938 16.59375 -24.640625 C 16.332031 -25.203125 16.015625 -25.628906 15.640625 -25.921875 C 15.265625 -26.222656 14.769531 -26.453125 14.15625 -26.609375 C 13.550781 -26.765625 13.007812 -26.851562 12.53125 -26.875 C 12.050781 -26.90625 11.460938 -26.921875 10.765625 -26.921875 L 9.890625 -26.921875 Z M 9.890625 -18.3125 "
           id="path61" />
      </g>
    </g>
  </g>
  <g
     fill="#272747"
     fill-opacity="1"
     id="g67">
    <g
       transform="translate(329.21836, 213.903169)"
       id="g66">
      <g
         id="g65">
        <path
           d="M 19.109375 -32.90625 L 32.390625 0 L 24.328125 0 L 21.90625 -6.578125 L 9.375 -6.578125 L 6.9375 0 L -1.109375 0 L 12.171875 -32.90625 Z M 19.34375 -13.15625 L 15.671875 -22.734375 L 15.59375 -22.734375 L 11.921875 -13.15625 Z M 19.34375 -13.15625 "
           id="path64" />
      </g>
    </g>
  </g>
  <g
     fill="#272747"
     fill-opacity="1"
     id="g70">
    <g
       transform="translate(36.931768, 246.348448)"
       id="g69">
      <g
         id="g68">
        <path
           d="M 9.59375 -4.96875 C 9.59375 -5.925781 9.257812 -6.765625 8.59375 -7.484375 C 7.914062 -8.210938 7.082031 -8.578125 6.09375 -8.578125 C 5.101562 -8.578125 4.273438 -8.210938 3.609375 -7.484375 C 2.929688 -6.765625 2.59375 -5.925781 2.59375 -4.96875 C 2.59375 -4 2.929688 -3.15625 3.609375 -2.4375 C 4.273438 -1.71875 5.101562 -1.359375 6.09375 -1.359375 C 7.082031 -1.359375 7.914062 -1.71875 8.59375 -2.4375 C 9.257812 -3.15625 9.59375 -4 9.59375 -4.96875 Z M 11.171875 0 L 9.59375 0 L 9.59375 -1.6875 C 9.5 -1.570312 9.40625 -1.460938 9.3125 -1.359375 C 8.363281 -0.304688 7.207031 0.21875 5.84375 0.21875 C 4.476562 0.21875 3.328125 -0.304688 2.390625 -1.359375 C 1.472656 -2.378906 1.015625 -3.582031 1.015625 -4.96875 C 1.015625 -6.351562 1.472656 -7.554688 2.390625 -8.578125 C 3.328125 -9.628906 4.476562 -10.15625 5.84375 -10.15625 C 7.207031 -10.15625 8.363281 -9.628906 9.3125 -8.578125 C 9.40625 -8.472656 9.5 -8.359375 9.59375 -8.234375 L 9.59375 -16.921875 L 11.171875 -16.921875 Z M 11.171875 0 "
           id="path67" />
      </g>
    </g>
  </g>
  <g
     fill="#272747"
     fill-opacity="1"
     id="g73">
    <g
       transform="translate(51.682249, 246.348448)"
       id="g72">
      <g
         id="g71">
        <path
           d="M 9.59375 -4.96875 C 9.59375 -5.925781 9.257812 -6.765625 8.59375 -7.484375 C 7.914062 -8.210938 7.082031 -8.578125 6.09375 -8.578125 C 5.101562 -8.578125 4.273438 -8.210938 3.609375 -7.484375 C 2.929688 -6.765625 2.59375 -5.925781 2.59375 -4.96875 C 2.59375 -4 2.929688 -3.15625 3.609375 -2.4375 C 4.273438 -1.71875 5.101562 -1.359375 6.09375 -1.359375 C 7.082031 -1.359375 7.914062 -1.71875 8.59375 -2.4375 C 9.257812 -3.15625 9.59375 -4 9.59375 -4.96875 Z M 11.171875 0 L 9.59375 0 L 9.59375 -1.6875 C 9.5 -1.570312 9.40625 -1.460938 9.3125 -1.359375 C 8.363281 -0.304688 7.207031 0.21875 5.84375 0.21875 C 4.476562 0.21875 3.328125 -0.304688 2.390625 -1.359375 C 1.472656 -2.378906 1.015625 -3.582031 1.015625 -4.96875 C 1.015625 -6.351562 1.472656 -7.554688 2.390625 -8.578125 C 3.328125 -9.628906 4.476562 -10.15625 5.84375 -10.15625 C 7.207031 -10.15625 8.363281 -9.628906 9.3125 -8.578125 C 9.40625 -8.472656 9.5 -8.359375 9.59375 -8.234375 L 9.59375 -9.921875 L 11.171875 -9.921875 Z M 11.171875 0 "
           id="path70" />
      </g>
    </g>
  </g>
  <g
     fill="#272747"
     fill-opacity="1"
     id="g76">
    <g
       transform="translate(66.432731, 246.348448)"
       id="g75">
      <g
         id="g74">
        <path
           d="M 6.796875 -7.875 C 6.429688 -8.207031 6.039062 -8.375 5.625 -8.375 C 5.21875 -8.375 4.867188 -8.257812 4.578125 -8.03125 C 4.273438 -7.789062 4.023438 -7.503906 3.828125 -7.171875 C 3.453125 -6.515625 3.265625 -5.78125 3.265625 -4.96875 L 3.265625 0 L 1.6875 0 L 1.6875 -9.921875 L 3.265625 -9.921875 L 3.265625 -7.875 L 3.34375 -8.28125 C 3.863281 -9.507812 4.679688 -10.125 5.796875 -10.125 C 6.140625 -10.125 6.472656 -10.054688 6.796875 -9.921875 Z M 6.796875 -7.875 "
           id="path73" />
      </g>
    </g>
  </g>
  <g
     fill="#272747"
     fill-opacity="1"
     id="g79">
    <g
       transform="translate(75.342096, 246.348448)"
       id="g78">
      <g
         id="g77">
        <path
           d="M 14.28125 -0.046875 L 14.28125 -6.25 C 14.28125 -7.269531 13.957031 -7.992188 13.3125 -8.421875 C 13.082031 -8.554688 12.738281 -8.625 12.28125 -8.625 C 11.8125 -8.625 11.375 -8.488281 10.96875 -8.21875 C 10.5625 -7.945312 10.238281 -7.597656 10 -7.171875 C 9.90625 -7.003906 9.820312 -6.828125 9.75 -6.640625 C 9.75 -6.515625 9.75 -6.382812 9.75 -6.25 L 9.75 -0.046875 L 8.171875 -0.046875 L 8.171875 -6.25 C 8.171875 -7.269531 7.847656 -7.992188 7.203125 -8.421875 C 6.972656 -8.554688 6.625 -8.625 6.15625 -8.625 C 5.6875 -8.625 5.25 -8.488281 4.84375 -8.21875 C 4.4375 -7.945312 4.113281 -7.597656 3.875 -7.171875 C 3.5625 -6.617188 3.359375 -5.9375 3.265625 -5.125 L 3.265625 -0.046875 L 1.6875 -0.046875 L 1.6875 -9.96875 L 3.265625 -9.96875 L 3.265625 -8.390625 C 3.566406 -8.898438 3.945312 -9.316406 4.40625 -9.640625 C 4.914062 -10.015625 5.515625 -10.203125 6.203125 -10.203125 C 6.898438 -10.203125 7.457031 -10.09375 7.875 -9.875 C 8.289062 -9.65625 8.644531 -9.363281 8.9375 -9 C 9.082031 -8.789062 9.21875 -8.554688 9.34375 -8.296875 C 9.644531 -8.835938 10.035156 -9.285156 10.515625 -9.640625 C 11.023438 -10.015625 11.625 -10.203125 12.3125 -10.203125 C 13.007812 -10.203125 13.566406 -10.09375 13.984375 -9.875 C 14.410156 -9.65625 14.765625 -9.363281 15.046875 -9 C 15.585938 -8.289062 15.859375 -7.375 15.859375 -6.25 L 15.859375 -0.046875 Z M 14.28125 -0.046875 "
           id="path76" />
      </g>
    </g>
  </g>
  <g
     fill="#272747"
     fill-opacity="1"
     id="g82">
    <g
       transform="translate(94.445228, 246.348448)"
       id="g81">
      <g
         id="g80">
        <path
           d="M 9.8125 -5.015625 C 9.8125 -6.003906 9.457031 -6.851562 8.75 -7.5625 C 8.039062 -8.269531 7.191406 -8.625 6.203125 -8.625 C 5.210938 -8.625 4.363281 -8.269531 3.65625 -7.5625 C 2.945312 -6.851562 2.59375 -6.003906 2.59375 -5.015625 C 2.59375 -4.035156 2.945312 -3.191406 3.65625 -2.484375 C 4.363281 -1.773438 5.210938 -1.421875 6.203125 -1.421875 C 7.191406 -1.421875 8.039062 -1.773438 8.75 -2.484375 C 9.457031 -3.191406 9.8125 -4.035156 9.8125 -5.015625 Z M 11.390625 -5.015625 C 11.390625 -3.566406 10.882812 -2.347656 9.875 -1.359375 C 8.84375 -0.347656 7.617188 0.15625 6.203125 0.15625 C 4.785156 0.15625 3.566406 -0.347656 2.546875 -1.359375 C 1.523438 -2.347656 1.015625 -3.566406 1.015625 -5.015625 C 1.015625 -6.441406 1.523438 -7.664062 2.546875 -8.6875 C 3.554688 -9.695312 4.773438 -10.203125 6.203125 -10.203125 C 7.628906 -10.203125 8.851562 -9.695312 9.875 -8.6875 C 10.882812 -7.664062 11.390625 -6.441406 11.390625 -5.015625 Z M 11.390625 -5.015625 "
           id="path79" />
      </g>
    </g>
  </g>
  <g
     fill="#272747"
     fill-opacity="1"
     id="g85">
    <g
       transform="translate(108.744653, 246.348448)"
       id="g84">
      <g
         id="g83">
        <path
           d="M 11.390625 1.265625 L 8.171875 -6.75 L 4.984375 1.265625 L 0.21875 -9.921875 L 1.984375 -9.921875 L 4.96875 -2.28125 L 8.171875 -10.453125 L 11.375 -2.28125 L 14.34375 -9.921875 L 16.109375 -9.921875 Z M 11.390625 1.265625 "
           id="path82" />
      </g>
    </g>
  </g>
  <g
     fill="#272747"
     fill-opacity="1"
     id="g88">
    <g
       transform="translate(126.968243, 246.348448)"
       id="g87">
      <g
         id="g86">
        <path
           d="M 11.390625 -5.1875 L 11.390625 -4.359375 L 2.65625 -4.359375 C 2.8125 -3.492188 3.226562 -2.789062 3.90625 -2.25 C 4.59375 -1.695312 5.359375 -1.421875 6.203125 -1.421875 C 6.773438 -1.421875 7.328125 -1.554688 7.859375 -1.828125 C 8.367188 -2.085938 8.796875 -2.445312 9.140625 -2.90625 L 10.9375 -2.90625 C 10.519531 -1.957031 9.890625 -1.210938 9.046875 -0.671875 C 8.191406 -0.117188 7.328125 0.15625 6.453125 0.15625 C 5.566406 0.15625 4.816406 0.0195312 4.203125 -0.25 C 3.566406 -0.519531 3.015625 -0.890625 2.546875 -1.359375 C 1.523438 -2.347656 1.015625 -3.566406 1.015625 -5.015625 C 1.015625 -6.441406 1.523438 -7.664062 2.546875 -8.6875 C 3.554688 -9.695312 4.773438 -10.203125 6.203125 -10.203125 C 7.585938 -10.203125 8.800781 -9.710938 9.84375 -8.734375 C 10.875 -7.742188 11.390625 -6.5625 11.390625 -5.1875 Z M 9.71875 -5.703125 C 9.539062 -6.546875 9.125 -7.25 8.46875 -7.8125 C 7.800781 -8.351562 7.046875 -8.625 6.203125 -8.625 C 4.910156 -8.625 3.894531 -8.039062 3.15625 -6.875 C 2.9375 -6.519531 2.78125 -6.128906 2.6875 -5.703125 Z M 9.71875 -5.703125 "
           id="path85" />
      </g>
    </g>
  </g>
  <g
     fill="#272747"
     fill-opacity="1"
     id="g91">
    <g
       transform="translate(141.154925, 246.348448)"
       id="g90">
      <g
         id="g89" />
    </g>
  </g>
  <g
     fill="#272747"
     fill-opacity="1"
     id="g94">
    <g
       transform="translate(149.139624, 246.348448)"
       id="g93">
      <g
         id="g92">
        <path
           d="M 7.015625 -15.453125 L 5.65625 -15.453125 C 5.132812 -15.453125 4.789062 -15.332031 4.625 -15.09375 C 4.457031 -14.851562 4.375 -14.5625 4.375 -14.21875 L 4.375 -9.921875 L 7.015625 -9.921875 L 7.015625 -8.46875 L 4.375 -8.46875 L 4.375 0 L 2.796875 0 L 2.796875 -8.46875 L 0.796875 -8.46875 L 0.796875 -9.921875 L 2.796875 -9.921875 L 2.796875 -13.765625 C 2.796875 -14.773438 3.035156 -15.554688 3.515625 -16.109375 C 3.984375 -16.648438 4.773438 -16.921875 5.890625 -16.921875 L 7.015625 -16.921875 Z M 7.015625 -15.453125 "
           id="path91" />
      </g>
    </g>
  </g>
  <g
     fill="#272747"
     fill-opacity="1"
     id="g97">
    <g
       transform="translate(158.725558, 246.348448)"
       id="g96">
      <g
         id="g95">
        <path
           d="M 3.296875 -13.359375 C 3.492188 -13.160156 3.59375 -12.925781 3.59375 -12.65625 C 3.59375 -12.375 3.492188 -12.132812 3.296875 -11.9375 C 3.097656 -11.738281 2.863281 -11.640625 2.59375 -11.640625 C 2.3125 -11.640625 2.070312 -11.738281 1.875 -11.9375 C 1.675781 -12.132812 1.578125 -12.375 1.578125 -12.65625 C 1.578125 -12.925781 1.675781 -13.160156 1.875 -13.359375 C 2.070312 -13.554688 2.3125 -13.65625 2.59375 -13.65625 C 2.863281 -13.65625 3.097656 -13.554688 3.296875 -13.359375 Z M 3.390625 0 L 1.8125 0 L 1.8125 -9.921875 L 3.390625 -9.921875 Z M 3.390625 0 "
           id="path94" />
      </g>
    </g>
  </g>
  <g
     fill="#272747"
     fill-opacity="1"
     id="g100">
    <g
       transform="translate(165.785595, 246.348448)"
       id="g99">
      <g
         id="g98">
        <path
           d="M 3.140625 -1.421875 C 3.523438 -1.148438 4.035156 -1.015625 4.671875 -1.015625 C 6.117188 -1.015625 6.84375 -1.554688 6.84375 -2.640625 C 6.84375 -3.273438 6.320312 -3.753906 5.28125 -4.078125 C 4.84375 -4.234375 4.375 -4.367188 3.875 -4.484375 C 3.363281 -4.609375 2.890625 -4.769531 2.453125 -4.96875 C 1.941406 -5.207031 1.5625 -5.503906 1.3125 -5.859375 C 1.050781 -6.222656 0.921875 -6.65625 0.921875 -7.15625 C 0.921875 -8.144531 1.269531 -8.890625 1.96875 -9.390625 C 2.65625 -9.898438 3.476562 -10.15625 4.4375 -10.15625 C 5.40625 -10.15625 6.207031 -9.957031 6.84375 -9.5625 C 7.46875 -9.175781 7.894531 -8.476562 8.125 -7.46875 L 6.4375 -7.46875 C 6.25 -8.019531 5.984375 -8.390625 5.640625 -8.578125 C 5.304688 -8.753906 4.894531 -8.84375 4.40625 -8.84375 C 3.90625 -8.84375 3.484375 -8.738281 3.140625 -8.53125 C 2.773438 -8.300781 2.59375 -7.96875 2.59375 -7.53125 C 2.59375 -7.082031 2.742188 -6.753906 3.046875 -6.546875 C 3.328125 -6.347656 3.6875 -6.175781 4.125 -6.03125 C 4.5625 -5.894531 5.035156 -5.769531 5.546875 -5.65625 C 6.046875 -5.539062 6.519531 -5.378906 6.96875 -5.171875 C 7.988281 -4.679688 8.5 -3.90625 8.5 -2.84375 C 8.5 -1.769531 8.117188 -0.976562 7.359375 -0.46875 C 6.960938 -0.21875 6.53125 -0.0234375 6.0625 0.109375 C 5.613281 0.234375 5.117188 0.296875 4.578125 0.296875 C 2.273438 0.296875 0.953125 -0.726562 0.609375 -2.78125 L 2.28125 -2.78125 C 2.445312 -2.132812 2.734375 -1.679688 3.140625 -1.421875 Z M 3.140625 -1.421875 "
           id="path97" />
      </g>
    </g>
  </g>
  <g
     fill="#272747"
     fill-opacity="1"
     id="g103">
    <g
       transform="translate(176.747246, 246.348448)"
       id="g102">
      <g
         id="g101">
        <path
           d="M 0.21875 0 L 6.71875 -8.46875 L 0.609375 -8.46875 L 0.609375 -9.921875 L 9.75 -9.921875 L 3.25 -1.46875 L 10.046875 -1.46875 L 10.046875 0 Z M 0.21875 0 "
           id="path100" />
      </g>
    </g>
  </g>
  <g
     fill="#272747"
     fill-opacity="1"
     id="g106">
    <g
       transform="translate(188.904177, 246.348448)"
       id="g105">
      <g
         id="g104">
        <path
           d="M 3.265625 0 L 1.6875 0 L 1.6875 -16.921875 L 3.265625 -16.921875 L 3.265625 -5.484375 L 6.90625 -9.953125 L 9 -9.953125 L 4.921875 -5.125 L 9.265625 0 L 7.171875 0 L 3.265625 -4.765625 Z M 3.265625 0 "
           id="path103" />
      </g>
    </g>
  </g>
  <g
     fill="#272747"
     fill-opacity="1"
     id="g109">
    <g
       transform="translate(200.294314, 246.348448)"
       id="g108">
      <g
         id="g107">
        <path
           d="M 3.296875 -13.359375 C 3.492188 -13.160156 3.59375 -12.925781 3.59375 -12.65625 C 3.59375 -12.375 3.492188 -12.132812 3.296875 -11.9375 C 3.097656 -11.738281 2.863281 -11.640625 2.59375 -11.640625 C 2.3125 -11.640625 2.070312 -11.738281 1.875 -11.9375 C 1.675781 -12.132812 1.578125 -12.375 1.578125 -12.65625 C 1.578125 -12.925781 1.675781 -13.160156 1.875 -13.359375 C 2.070312 -13.554688 2.3125 -13.65625 2.59375 -13.65625 C 2.863281 -13.65625 3.097656 -13.554688 3.296875 -13.359375 Z M 3.390625 0 L 1.8125 0 L 1.8125 -9.921875 L 3.390625 -9.921875 Z M 3.390625 0 "
           id="path106" />
      </g>
    </g>
  </g>
  <g
     fill="#272747"
     fill-opacity="1"
     id="g112">
    <g
       transform="translate(207.354351, 246.348448)"
       id="g111">
      <g
         id="g110" />
    </g>
  </g>
  <g
     fill="#272747"
     fill-opacity="1"
     id="g115">
    <g
       transform="translate(215.33905, 246.348448)"
       id="g114">
      <g
         id="g113">
        <path
           d="M 8.546875 0 L 8.546875 -6.203125 C 8.546875 -6.847656 8.40625 -7.40625 8.125 -7.875 C 7.820312 -8.320312 7.332031 -8.546875 6.65625 -8.546875 C 5.976562 -8.546875 5.429688 -8.421875 5.015625 -8.171875 C 4.585938 -7.910156 4.25 -7.578125 4 -7.171875 C 3.507812 -6.421875 3.265625 -5.414062 3.265625 -4.15625 L 3.265625 0 L 1.6875 0 L 1.6875 -9.921875 L 3.265625 -9.921875 L 3.265625 -8.21875 C 3.597656 -8.769531 4.019531 -9.226562 4.53125 -9.59375 C 5.070312 -9.945312 5.695312 -10.125 6.40625 -10.125 C 7.113281 -10.125 7.6875 -10.03125 8.125 -9.84375 C 8.5625 -9.625 8.929688 -9.34375 9.234375 -9 C 9.828125 -8.289062 10.125 -7.359375 10.125 -6.203125 L 10.125 0 Z M 8.546875 0 "
           id="path112" />
      </g>
    </g>
  </g>
  <g
     fill="#272747"
     fill-opacity="1"
     id="g118">
    <g
       transform="translate(228.713829, 246.348448)"
       id="g117">
      <g
         id="g116">
        <path
           d="M 9.59375 -4.96875 C 9.59375 -5.925781 9.257812 -6.765625 8.59375 -7.484375 C 7.914062 -8.210938 7.082031 -8.578125 6.09375 -8.578125 C 5.101562 -8.578125 4.273438 -8.210938 3.609375 -7.484375 C 2.929688 -6.765625 2.59375 -5.925781 2.59375 -4.96875 C 2.59375 -4 2.929688 -3.15625 3.609375 -2.4375 C 4.273438 -1.71875 5.101562 -1.359375 6.09375 -1.359375 C 7.082031 -1.359375 7.914062 -1.71875 8.59375 -2.4375 C 9.257812 -3.15625 9.59375 -4 9.59375 -4.96875 Z M 11.171875 0 L 9.59375 0 L 9.59375 -1.6875 C 9.5 -1.570312 9.40625 -1.460938 9.3125 -1.359375 C 8.363281 -0.304688 7.207031 0.21875 5.84375 0.21875 C 4.476562 0.21875 3.328125 -0.304688 2.390625 -1.359375 C 1.472656 -2.378906 1.015625 -3.582031 1.015625 -4.96875 C 1.015625 -6.351562 1.472656 -7.554688 2.390625 -8.578125 C 3.328125 -9.628906 4.476562 -10.15625 5.84375 -10.15625 C 7.207031 -10.15625 8.363281 -9.628906 9.3125 -8.578125 C 9.40625 -8.472656 9.5 -8.359375 9.59375 -8.234375 L 9.59375 -9.921875 L 11.171875 -9.921875 Z M 11.171875 0 "
           id="path115" />
      </g>
    </g>
  </g>
  <g
     fill="#272747"
     fill-opacity="1"
     id="g121">
    <g
       transform="translate(243.464305, 246.348448)"
       id="g120">
      <g
         id="g119" />
    </g>
  </g>
  <g
     fill="#272747"
     fill-opacity="1"
     id="g124">
    <g
       transform="translate(251.449004, 246.348448)"
       id="g123">
      <g
         id="g122">
        <path
           d="M 14.28125 -0.046875 L 14.28125 -6.25 C 14.28125 -7.269531 13.957031 -7.992188 13.3125 -8.421875 C 13.082031 -8.554688 12.738281 -8.625 12.28125 -8.625 C 11.8125 -8.625 11.375 -8.488281 10.96875 -8.21875 C 10.5625 -7.945312 10.238281 -7.597656 10 -7.171875 C 9.90625 -7.003906 9.820312 -6.828125 9.75 -6.640625 C 9.75 -6.515625 9.75 -6.382812 9.75 -6.25 L 9.75 -0.046875 L 8.171875 -0.046875 L 8.171875 -6.25 C 8.171875 -7.269531 7.847656 -7.992188 7.203125 -8.421875 C 6.972656 -8.554688 6.625 -8.625 6.15625 -8.625 C 5.6875 -8.625 5.25 -8.488281 4.84375 -8.21875 C 4.4375 -7.945312 4.113281 -7.597656 3.875 -7.171875 C 3.5625 -6.617188 3.359375 -5.9375 3.265625 -5.125 L 3.265625 -0.046875 L 1.6875 -0.046875 L 1.6875 -9.96875 L 3.265625 -9.96875 L 3.265625 -8.390625 C 3.566406 -8.898438 3.945312 -9.316406 4.40625 -9.640625 C 4.914062 -10.015625 5.515625 -10.203125 6.203125 -10.203125 C 6.898438 -10.203125 7.457031 -10.09375 7.875 -9.875 C 8.289062 -9.65625 8.644531 -9.363281 8.9375 -9 C 9.082031 -8.789062 9.21875 -8.554688 9.34375 -8.296875 C 9.644531 -8.835938 10.035156 -9.285156 10.515625 -9.640625 C 11.023438 -10.015625 11.625 -10.203125 12.3125 -10.203125 C 13.007812 -10.203125 13.566406 -10.09375 13.984375 -9.875 C 14.410156 -9.65625 14.765625 -9.363281 15.046875 -9 C 15.585938 -8.289062 15.859375 -7.375 15.859375 -6.25 L 15.859375 -0.046875 Z M 14.28125 -0.046875 "
           id="path121" />
      </g>
    </g>
  </g>
  <g
     fill="#272747"
     fill-opacity="1"
     id="g127">
    <g
       transform="translate(270.552131, 246.348448)"
       id="g126">
      <g
         id="g125">
        <path
           d="M 9.59375 -4.96875 C 9.59375 -5.925781 9.257812 -6.765625 8.59375 -7.484375 C 7.914062 -8.210938 7.082031 -8.578125 6.09375 -8.578125 C 5.101562 -8.578125 4.273438 -8.210938 3.609375 -7.484375 C 2.929688 -6.765625 2.59375 -5.925781 2.59375 -4.96875 C 2.59375 -4 2.929688 -3.15625 3.609375 -2.4375 C 4.273438 -1.71875 5.101562 -1.359375 6.09375 -1.359375 C 7.082031 -1.359375 7.914062 -1.71875 8.59375 -2.4375 C 9.257812 -3.15625 9.59375 -4 9.59375 -4.96875 Z M 11.171875 0 L 9.59375 0 L 9.59375 -1.6875 C 9.5 -1.570312 9.40625 -1.460938 9.3125 -1.359375 C 8.363281 -0.304688 7.207031 0.21875 5.84375 0.21875 C 4.476562 0.21875 3.328125 -0.304688 2.390625 -1.359375 C 1.472656 -2.378906 1.015625 -3.582031 1.015625 -4.96875 C 1.015625 -6.351562 1.472656 -7.554688 2.390625 -8.578125 C 3.328125 -9.628906 4.476562 -10.15625 5.84375 -10.15625 C 7.207031 -10.15625 8.363281 -9.628906 9.3125 -8.578125 C 9.40625 -8.472656 9.5 -8.359375 9.59375 -8.234375 L 9.59375 -9.921875 L 11.171875 -9.921875 Z M 11.171875 0 "
           id="path124" />
      </g>
    </g>
  </g>
  <g
     fill="#272747"
     fill-opacity="1"
     id="g130">
    <g
       transform="translate(285.302607, 246.348448)"
       id="g129">
      <g
         id="g128">
        <path
           d="M 0.453125 -8.46875 L 0.453125 -9.921875 L 2.9375 -9.921875 L 2.9375 -13.78125 L 4.515625 -13.78125 L 4.515625 -9.921875 L 6.96875 -9.921875 L 6.96875 -8.46875 L 4.515625 -8.46875 L 4.515625 0 L 2.9375 0 L 2.9375 -8.46875 Z M 0.453125 -8.46875 "
           id="path127" />
      </g>
    </g>
  </g>
  <g
     fill="#272747"
     fill-opacity="1"
     id="g133">
    <g
       transform="translate(294.617904, 246.348448)"
       id="g132">
      <g
         id="g131">
        <path
           d="M 8.546875 -1.6875 C 7.816406 -0.425781 6.710938 0.203125 5.234375 0.203125 C 4.117188 0.203125 3.25 -0.164062 2.625 -0.90625 C 2 -1.644531 1.6875 -2.582031 1.6875 -3.71875 L 1.6875 -9.921875 L 3.265625 -9.921875 L 3.265625 -3.71875 C 3.265625 -3.070312 3.414062 -2.523438 3.71875 -2.078125 C 4.007812 -1.609375 4.492188 -1.375 5.171875 -1.375 C 6.398438 -1.375 7.269531 -1.765625 7.78125 -2.546875 C 8.289062 -3.316406 8.546875 -4.394531 8.546875 -5.78125 L 8.546875 -9.921875 L 10.125 -9.921875 L 10.125 0 L 8.546875 0 Z M 8.546875 -1.6875 "
           id="path130" />
      </g>
    </g>
  </g>
  <g
     fill="#272747"
     fill-opacity="1"
     id="g136">
    <g
       transform="translate(307.992683, 246.348448)"
       id="g135">
      <g
         id="g134">
        <path
           d="M 6.796875 -7.875 C 6.429688 -8.207031 6.039062 -8.375 5.625 -8.375 C 5.21875 -8.375 4.867188 -8.257812 4.578125 -8.03125 C 4.273438 -7.789062 4.023438 -7.503906 3.828125 -7.171875 C 3.453125 -6.515625 3.265625 -5.78125 3.265625 -4.96875 L 3.265625 0 L 1.6875 0 L 1.6875 -9.921875 L 3.265625 -9.921875 L 3.265625 -7.875 L 3.34375 -8.28125 C 3.863281 -9.507812 4.679688 -10.125 5.796875 -10.125 C 6.140625 -10.125 6.472656 -10.054688 6.796875 -9.921875 Z M 6.796875 -7.875 "
           id="path133" />
      </g>
    </g>
  </g>
  <g
     fill="#272747"
     fill-opacity="1"
     id="g139">
    <g
       transform="translate(316.902043, 246.348448)"
       id="g138">
      <g
         id="g137">
        <path
           d="M 11.390625 -5.1875 L 11.390625 -4.359375 L 2.65625 -4.359375 C 2.8125 -3.492188 3.226562 -2.789062 3.90625 -2.25 C 4.59375 -1.695312 5.359375 -1.421875 6.203125 -1.421875 C 6.773438 -1.421875 7.328125 -1.554688 7.859375 -1.828125 C 8.367188 -2.085938 8.796875 -2.445312 9.140625 -2.90625 L 10.9375 -2.90625 C 10.519531 -1.957031 9.890625 -1.210938 9.046875 -0.671875 C 8.191406 -0.117188 7.328125 0.15625 6.453125 0.15625 C 5.566406 0.15625 4.816406 0.0195312 4.203125 -0.25 C 3.566406 -0.519531 3.015625 -0.890625 2.546875 -1.359375 C 1.523438 -2.347656 1.015625 -3.566406 1.015625 -5.015625 C 1.015625 -6.441406 1.523438 -7.664062 2.546875 -8.6875 C 3.554688 -9.695312 4.773438 -10.203125 6.203125 -10.203125 C 7.585938 -10.203125 8.800781 -9.710938 9.84375 -8.734375 C 10.875 -7.742188 11.390625 -6.5625 11.390625 -5.1875 Z M 9.71875 -5.703125 C 9.539062 -6.546875 9.125 -7.25 8.46875 -7.8125 C 7.800781 -8.351562 7.046875 -8.625 6.203125 -8.625 C 4.910156 -8.625 3.894531 -8.039062 3.15625 -6.875 C 2.9375 -6.519531 2.78125 -6.128906 2.6875 -5.703125 Z M 9.71875 -5.703125 "
           id="path136" />
      </g>
    </g>
  </g>
</svg>
