<svg xmlns="http://www.w3.org/2000/svg" xmlns:xlink="http://www.w3.org/1999/xlink" width="200" zoomAndPan="magnify" viewBox="0 0 150 149.999998" height="200" preserveAspectRatio="xMidYMid meet" version="1.0"><defs><g/><clipPath id="e0056420a0"><path d="M 0 62.105469 L 44.25 62.105469 L 44.25 90 L 0 90 Z M 0 62.105469 " clip-rule="nonzero"/></clipPath></defs><path fill="#ffc925" d="M 24.503906 79.65625 C 24.464844 79.65625 24.425781 79.65625 24.390625 79.664062 C 24.347656 79.65625 24.304688 79.652344 24.257812 79.65625 C 24.21875 79.660156 24.183594 79.660156 24.144531 79.652344 C 23.167969 79.644531 22.203125 79.730469 21.246094 79.910156 C 20.289062 80.089844 19.359375 80.363281 18.457031 80.726562 C 17.554688 81.09375 16.699219 81.542969 15.882812 82.078125 C 15.070312 82.613281 14.316406 83.222656 13.625 83.90625 C 12.929688 84.589844 12.3125 85.335938 11.765625 86.144531 C 11.222656 86.949219 10.761719 87.800781 10.382812 88.699219 C 10.007812 89.597656 9.722656 90.523438 9.53125 91.480469 C 9.335938 92.433594 9.238281 93.398438 9.234375 94.371094 C 9.230469 95.460938 9.332031 96.539062 9.535156 97.609375 C 9.878906 99.25 10.460938 100.804688 11.277344 102.269531 C 12.710938 104.421875 14.386719 106.363281 16.304688 108.09375 C 16.921875 108.660156 17.453125 109.296875 17.898438 110 C 18.34375 110.707031 18.691406 111.457031 18.941406 112.253906 C 19.1875 113.050781 19.328125 113.867188 19.359375 114.699219 C 19.390625 115.535156 19.3125 116.359375 19.125 117.171875 L 29.046875 117.238281 C 28.867188 116.421875 28.800781 115.597656 28.839844 114.761719 C 28.882812 113.929688 29.03125 113.113281 29.289062 112.320312 C 29.546875 111.523438 29.902344 110.777344 30.359375 110.074219 C 30.8125 109.375 31.351562 108.746094 31.976562 108.1875 C 33.917969 106.484375 35.625 104.5625 37.085938 102.429688 C 37.917969 100.976562 38.515625 99.4375 38.878906 97.804688 C 39.097656 96.734375 39.210938 95.65625 39.21875 94.5625 C 39.226562 93.589844 39.140625 92.625 38.960938 91.671875 C 38.777344 90.714844 38.503906 89.785156 38.136719 88.882812 C 37.773438 87.980469 37.324219 87.125 36.789062 86.3125 C 36.253906 85.496094 35.644531 84.746094 34.960938 84.050781 C 34.277344 83.359375 33.53125 82.738281 32.726562 82.195312 C 31.921875 81.648438 31.070312 81.1875 30.171875 80.808594 C 29.273438 80.433594 28.347656 80.148438 27.394531 79.953125 C 26.441406 79.757812 25.476562 79.660156 24.503906 79.65625 Z M 34.96875 86.097656 C 37.246094 89.023438 37.730469 92.90625 36.695312 96.886719 C 36.363281 98.152344 36.101562 98.058594 36.085938 96.722656 C 36.082031 95.910156 36.015625 95.097656 35.878906 94.292969 C 35.742188 93.488281 35.542969 92.703125 35.277344 91.929688 C 35.007812 91.160156 34.679688 90.414062 34.292969 89.699219 C 33.902344 88.980469 33.457031 88.300781 32.953125 87.65625 C 32.453125 87.015625 31.898438 86.417969 31.300781 85.867188 C 30.699219 85.316406 30.054688 84.816406 29.371094 84.371094 C 28.6875 83.925781 27.972656 83.539062 27.226562 83.214844 C 26.476562 82.886719 25.707031 82.625 24.917969 82.425781 C 23.632812 82.058594 23.613281 81.792969 24.917969 81.785156 C 29.035156 81.746094 32.6875 83.171875 34.96875 86.097656 Z M 34.96875 86.097656 " fill-opacity="1" fill-rule="nonzero"/><path fill="#272747" d="M 18.203125 118.179688 C 18.210938 118.335938 18.246094 118.484375 18.316406 118.625 C 18.382812 118.765625 18.476562 118.886719 18.589844 118.992188 C 18.707031 119.097656 18.839844 119.175781 18.988281 119.226562 C 19.132812 119.277344 19.285156 119.300781 19.441406 119.292969 L 28.683594 119.363281 C 28.839844 119.371094 28.992188 119.351562 29.140625 119.300781 C 29.289062 119.25 29.421875 119.171875 29.539062 119.066406 C 29.65625 118.964844 29.75 118.839844 29.820312 118.699219 C 29.890625 118.558594 29.929688 118.410156 29.941406 118.253906 C 29.929688 118.097656 29.890625 117.949219 29.824219 117.808594 C 29.757812 117.667969 29.664062 117.546875 29.546875 117.441406 C 29.433594 117.339844 29.300781 117.261719 29.152344 117.210938 C 29.003906 117.15625 28.855469 117.136719 28.699219 117.144531 L 19.460938 117.082031 C 19.304688 117.070312 19.152344 117.089844 19.003906 117.140625 C 18.855469 117.191406 18.722656 117.265625 18.605469 117.371094 C 18.484375 117.472656 18.390625 117.59375 18.324219 117.734375 C 18.253906 117.875 18.210938 118.023438 18.203125 118.179688 Z M 18.203125 118.179688 " fill-opacity="1" fill-rule="nonzero"/><path fill="#272747" d="M 18.179688 120.992188 C 18.191406 121.148438 18.230469 121.296875 18.300781 121.433594 C 18.367188 121.574219 18.460938 121.695312 18.578125 121.796875 C 18.691406 121.902344 18.824219 121.976562 18.972656 122.027344 C 19.117188 122.078125 19.269531 122.101562 19.425781 122.089844 L 28.65625 122.160156 C 28.8125 122.171875 28.964844 122.152344 29.117188 122.101562 C 29.265625 122.054688 29.398438 121.976562 29.515625 121.875 C 29.636719 121.773438 29.730469 121.648438 29.800781 121.507812 C 29.871094 121.371094 29.914062 121.222656 29.925781 121.0625 C 29.914062 120.910156 29.875 120.761719 29.808594 120.621094 C 29.738281 120.480469 29.648438 120.359375 29.53125 120.253906 C 29.417969 120.152344 29.285156 120.074219 29.136719 120.019531 C 28.992188 119.96875 28.839844 119.945312 28.683594 119.953125 L 19.4375 119.894531 C 19.28125 119.886719 19.128906 119.90625 18.980469 119.957031 C 18.835938 120.007812 18.703125 120.082031 18.582031 120.1875 C 18.464844 120.289062 18.371094 120.410156 18.304688 120.550781 C 18.234375 120.691406 18.191406 120.835938 18.179688 120.992188 Z M 18.179688 120.992188 " fill-opacity="1" fill-rule="nonzero"/><path fill="#272747" d="M 19.863281 123.664062 C 19.871094 123.820312 19.90625 123.96875 19.976562 124.109375 C 20.042969 124.25 20.132812 124.375 20.25 124.480469 C 20.367188 124.582031 20.5 124.660156 20.648438 124.710938 C 20.796875 124.761719 20.949219 124.785156 21.105469 124.773438 L 26.953125 124.8125 C 27.109375 124.824219 27.261719 124.804688 27.40625 124.753906 C 27.554688 124.703125 27.6875 124.628906 27.808594 124.523438 C 27.925781 124.421875 28.019531 124.300781 28.085938 124.160156 C 28.15625 124.019531 28.195312 123.871094 28.207031 123.71875 C 28.195312 123.5625 28.15625 123.414062 28.089844 123.273438 C 28.023438 123.132812 27.929688 123.011719 27.8125 122.910156 C 27.699219 122.804688 27.566406 122.726562 27.421875 122.671875 C 27.273438 122.621094 27.125 122.597656 26.96875 122.605469 L 21.113281 122.574219 C 20.960938 122.566406 20.808594 122.582031 20.660156 122.632812 C 20.511719 122.683594 20.378906 122.757812 20.261719 122.859375 C 20.144531 122.960938 20.050781 123.082031 19.980469 123.222656 C 19.914062 123.359375 19.871094 123.507812 19.863281 123.664062 Z M 19.863281 123.664062 " fill-opacity="1" fill-rule="nonzero"/><g clip-path="url(#e0056420a0)"><path fill="#272747" d="M 42.460938 71.757812 L 42.5 71.726562 L 19.0625 62.59375 L 0 79.003906 L 8.453125 81.914062 L 9.800781 89.785156 C 12.695312 87.363281 15.984375 85.730469 19.660156 84.882812 C 20.179688 84.761719 20.703125 84.65625 21.226562 84.566406 C 23.9375 84.089844 26.65625 84.050781 29.378906 84.453125 C 32.101562 84.855469 34.691406 85.675781 37.148438 86.917969 L 35.816406 79.125 C 35.335938 78.800781 34.84375 78.496094 34.339844 78.203125 C 31.957031 76.859375 29.425781 75.925781 26.742188 75.402344 C 24.058594 74.878906 21.359375 74.792969 18.648438 75.140625 C 18.96875 75.074219 19.289062 75.003906 19.609375 74.949219 C 22.3125 74.472656 25.023438 74.433594 27.742188 74.832031 C 30.460938 75.230469 33.042969 76.050781 35.496094 77.285156 L 35.5 77.285156 L 41.222656 72.742188 L 43.074219 79.9375 L 42.90625 82.820312 L 44.332031 82.675781 L 43.125 79.929688 Z M 42.460938 71.757812 " fill-opacity="1" fill-rule="nonzero"/></g><g fill="#ffc925" fill-opacity="1"><g transform="translate(39.010355, 111.44705)"><g><path d="M 4.234375 -9.765625 C 4.753906 -9.765625 5.257812 -9.6875 5.75 -9.53125 C 6.25 -9.382812 6.617188 -9.238281 6.859375 -9.09375 L 7.203125 -8.859375 L 6.328125 -7.109375 C 6.253906 -7.160156 6.15625 -7.222656 6.03125 -7.296875 C 5.90625 -7.367188 5.671875 -7.46875 5.328125 -7.59375 C 4.992188 -7.71875 4.675781 -7.78125 4.375 -7.78125 C 4.019531 -7.78125 3.742188 -7.703125 3.546875 -7.546875 C 3.347656 -7.390625 3.25 -7.179688 3.25 -6.921875 C 3.25 -6.785156 3.289062 -6.660156 3.375 -6.546875 C 3.46875 -6.429688 3.628906 -6.3125 3.859375 -6.1875 C 4.085938 -6.0625 4.285156 -5.957031 4.453125 -5.875 C 4.617188 -5.800781 4.882812 -5.6875 5.25 -5.53125 C 5.863281 -5.269531 6.390625 -4.910156 6.828125 -4.453125 C 7.265625 -4.003906 7.484375 -3.492188 7.484375 -2.921875 C 7.484375 -2.367188 7.382812 -1.882812 7.1875 -1.46875 C 6.988281 -1.0625 6.71875 -0.738281 6.375 -0.5 C 6.03125 -0.269531 5.648438 -0.101562 5.234375 0 C 4.816406 0.113281 4.363281 0.171875 3.875 0.171875 C 3.457031 0.171875 3.046875 0.128906 2.640625 0.046875 C 2.234375 -0.0351562 1.894531 -0.140625 1.625 -0.265625 C 1.351562 -0.398438 1.109375 -0.53125 0.890625 -0.65625 C 0.671875 -0.78125 0.515625 -0.882812 0.421875 -0.96875 L 0.265625 -1.09375 L 1.359375 -2.921875 C 1.453125 -2.847656 1.578125 -2.75 1.734375 -2.625 C 1.898438 -2.507812 2.191406 -2.347656 2.609375 -2.140625 C 3.023438 -1.941406 3.390625 -1.84375 3.703125 -1.84375 C 4.628906 -1.84375 5.09375 -2.160156 5.09375 -2.796875 C 5.09375 -2.921875 5.054688 -3.039062 4.984375 -3.15625 C 4.921875 -3.269531 4.804688 -3.378906 4.640625 -3.484375 C 4.472656 -3.597656 4.328125 -3.6875 4.203125 -3.75 C 4.078125 -3.820312 3.867188 -3.925781 3.578125 -4.0625 C 3.285156 -4.195312 3.066406 -4.300781 2.921875 -4.375 C 2.347656 -4.65625 1.898438 -5.007812 1.578125 -5.4375 C 1.265625 -5.875 1.109375 -6.335938 1.109375 -6.828125 C 1.109375 -7.691406 1.425781 -8.394531 2.0625 -8.9375 C 2.695312 -9.488281 3.421875 -9.765625 4.234375 -9.765625 Z M 4.234375 -9.765625 "/></g></g></g><g fill="#ffc925" fill-opacity="1"><g transform="translate(47.274418, 111.44705)"><g><path d="M 8.625 0 L 8.171875 -5.6875 L 8.109375 -5.6875 L 6.15625 -0.0625 L 4.84375 -0.0625 L 2.890625 -5.6875 L 2.828125 -5.6875 L 2.375 0 L 0.1875 0 L 1.046875 -9.59375 L 3.375 -9.59375 L 5.5 -4.0625 L 7.625 -9.59375 L 9.953125 -9.59375 L 10.8125 0 Z M 8.625 0 "/></g></g></g><g fill="#ffc925" fill-opacity="1"><g transform="translate(58.723175, 111.44705)"><g><path d="M 5.5625 -9.59375 L 9.4375 0 L 7.09375 0 L 6.375 -1.921875 L 2.734375 -1.921875 L 2.015625 0 L -0.328125 0 L 3.546875 -9.59375 Z M 5.640625 -3.84375 L 4.5625 -6.625 L 4.546875 -6.625 L 3.46875 -3.84375 Z M 5.640625 -3.84375 "/></g></g></g><g fill="#ffc925" fill-opacity="1"><g transform="translate(68.289013, 111.44705)"><g><path d="M 0.703125 -9.59375 L 4.125 -9.59375 C 5.050781 -9.59375 5.800781 -9.34375 6.375 -8.84375 C 6.957031 -8.351562 7.25 -7.65625 7.25 -6.75 C 7.25 -6.039062 7.070312 -5.445312 6.71875 -4.96875 C 6.375 -4.488281 5.898438 -4.15625 5.296875 -3.96875 L 8.59375 0 L 5.8125 0 L 2.890625 -3.796875 L 2.890625 0 L 0.703125 0 Z M 2.890625 -5.328125 L 3.140625 -5.328125 C 3.335938 -5.328125 3.503906 -5.332031 3.640625 -5.34375 C 3.785156 -5.351562 3.945312 -5.378906 4.125 -5.421875 C 4.300781 -5.472656 4.441406 -5.539062 4.546875 -5.625 C 4.660156 -5.707031 4.753906 -5.832031 4.828125 -6 C 4.910156 -6.164062 4.953125 -6.363281 4.953125 -6.59375 C 4.953125 -6.820312 4.910156 -7.015625 4.828125 -7.171875 C 4.753906 -7.335938 4.660156 -7.460938 4.546875 -7.546875 C 4.441406 -7.640625 4.300781 -7.707031 4.125 -7.75 C 3.945312 -7.800781 3.785156 -7.828125 3.640625 -7.828125 C 3.503906 -7.835938 3.335938 -7.84375 3.140625 -7.84375 L 2.890625 -7.84375 Z M 2.890625 -5.328125 "/></g></g></g><g fill="#ffc925" fill-opacity="1"><g transform="translate(77.064485, 111.44705)"><g><path d="M 0.09375 -7.671875 L 0.09375 -9.59375 L 6.828125 -9.59375 L 6.828125 -7.671875 L 4.5625 -7.671875 L 4.5625 0 L 2.375 0 L 2.375 -7.671875 Z M 0.09375 -7.671875 "/></g></g></g><g fill="#272747" fill-opacity="1"><g transform="translate(84.447421, 111.44705)"><g><path d="M 8.625 0 L 8.171875 -5.6875 L 8.109375 -5.6875 L 6.15625 -0.0625 L 4.84375 -0.0625 L 2.890625 -5.6875 L 2.828125 -5.6875 L 2.375 0 L 0.1875 0 L 1.046875 -9.59375 L 3.375 -9.59375 L 5.5 -4.0625 L 7.625 -9.59375 L 9.953125 -9.59375 L 10.8125 0 Z M 8.625 0 "/></g></g></g><g fill="#272747" fill-opacity="1"><g transform="translate(95.896178, 111.44705)"><g><path d="M 5.5625 -9.59375 L 9.4375 0 L 7.09375 0 L 6.375 -1.921875 L 2.734375 -1.921875 L 2.015625 0 L -0.328125 0 L 3.546875 -9.59375 Z M 5.640625 -3.84375 L 4.5625 -6.625 L 4.546875 -6.625 L 3.46875 -3.84375 Z M 5.640625 -3.84375 "/></g></g></g><g fill="#272747" fill-opacity="1"><g transform="translate(105.462015, 111.44705)"><g><path d="M 0.09375 -7.671875 L 0.09375 -9.59375 L 6.828125 -9.59375 L 6.828125 -7.671875 L 4.5625 -7.671875 L 4.5625 0 L 2.375 0 L 2.375 -7.671875 Z M 0.09375 -7.671875 "/></g></g></g><g fill="#272747" fill-opacity="1"><g transform="translate(112.842734, 111.44705)"><g><path d="M 8.0625 -9.59375 L 8.0625 -3.40625 C 8.0625 -2.226562 7.742188 -1.335938 7.109375 -0.734375 C 6.472656 -0.128906 5.539062 0.171875 4.3125 0.171875 C 3.09375 0.171875 2.164062 -0.128906 1.53125 -0.734375 C 0.894531 -1.335938 0.578125 -2.226562 0.578125 -3.40625 L 0.578125 -9.59375 L 2.765625 -9.59375 L 2.765625 -4.046875 C 2.765625 -3.273438 2.882812 -2.734375 3.125 -2.421875 C 3.375 -2.117188 3.773438 -1.96875 4.328125 -1.96875 C 4.878906 -1.96875 5.273438 -2.117188 5.515625 -2.421875 C 5.753906 -2.734375 5.875 -3.273438 5.875 -4.046875 L 5.875 -9.59375 Z M 8.0625 -9.59375 "/></g></g></g><g fill="#272747" fill-opacity="1"><g transform="translate(121.94365, 111.44705)"><g><path d="M 0.703125 -9.59375 L 4.125 -9.59375 C 5.050781 -9.59375 5.800781 -9.34375 6.375 -8.84375 C 6.957031 -8.351562 7.25 -7.65625 7.25 -6.75 C 7.25 -6.039062 7.070312 -5.445312 6.71875 -4.96875 C 6.375 -4.488281 5.898438 -4.15625 5.296875 -3.96875 L 8.59375 0 L 5.8125 0 L 2.890625 -3.796875 L 2.890625 0 L 0.703125 0 Z M 2.890625 -5.328125 L 3.140625 -5.328125 C 3.335938 -5.328125 3.503906 -5.332031 3.640625 -5.34375 C 3.785156 -5.351562 3.945312 -5.378906 4.125 -5.421875 C 4.300781 -5.472656 4.441406 -5.539062 4.546875 -5.625 C 4.660156 -5.707031 4.753906 -5.832031 4.828125 -6 C 4.910156 -6.164062 4.953125 -6.363281 4.953125 -6.59375 C 4.953125 -6.820312 4.910156 -7.015625 4.828125 -7.171875 C 4.753906 -7.335938 4.660156 -7.460938 4.546875 -7.546875 C 4.441406 -7.640625 4.300781 -7.707031 4.125 -7.75 C 3.945312 -7.800781 3.785156 -7.828125 3.640625 -7.828125 C 3.503906 -7.835938 3.335938 -7.84375 3.140625 -7.84375 L 2.890625 -7.84375 Z M 2.890625 -5.328125 "/></g></g></g><g fill="#272747" fill-opacity="1"><g transform="translate(130.719123, 111.44705)"><g><path d="M 5.5625 -9.59375 L 9.4375 0 L 7.09375 0 L 6.375 -1.921875 L 2.734375 -1.921875 L 2.015625 0 L -0.328125 0 L 3.546875 -9.59375 Z M 5.640625 -3.84375 L 4.5625 -6.625 L 4.546875 -6.625 L 3.46875 -3.84375 Z M 5.640625 -3.84375 "/></g></g></g><g fill="#272747" fill-opacity="1"><g transform="translate(33.138051, 122.677319)"><g><path d="M 3.6875 -1.90625 C 3.6875 -2.28125 3.5625 -2.609375 3.3125 -2.890625 C 3.050781 -3.160156 2.726562 -3.296875 2.34375 -3.296875 C 1.957031 -3.296875 1.640625 -3.160156 1.390625 -2.890625 C 1.128906 -2.609375 1 -2.28125 1 -1.90625 C 1 -1.539062 1.128906 -1.21875 1.390625 -0.9375 C 1.640625 -0.65625 1.957031 -0.515625 2.34375 -0.515625 C 2.726562 -0.515625 3.050781 -0.65625 3.3125 -0.9375 C 3.5625 -1.21875 3.6875 -1.539062 3.6875 -1.90625 Z M 4.296875 0 L 3.6875 0 L 3.6875 -0.65625 C 3.65625 -0.601562 3.625 -0.554688 3.59375 -0.515625 C 3.226562 -0.109375 2.78125 0.09375 2.25 0.09375 C 1.71875 0.09375 1.273438 -0.109375 0.921875 -0.515625 C 0.566406 -0.910156 0.390625 -1.375 0.390625 -1.90625 C 0.390625 -2.4375 0.566406 -2.898438 0.921875 -3.296875 C 1.273438 -3.703125 1.71875 -3.90625 2.25 -3.90625 C 2.78125 -3.90625 3.226562 -3.703125 3.59375 -3.296875 C 3.625 -3.253906 3.65625 -3.210938 3.6875 -3.171875 L 3.6875 -6.515625 L 4.296875 -6.515625 Z M 4.296875 0 "/></g></g></g><g fill="#272747" fill-opacity="1"><g transform="translate(38.818709, 122.677319)"><g><path d="M 3.6875 -1.90625 C 3.6875 -2.28125 3.5625 -2.609375 3.3125 -2.890625 C 3.050781 -3.160156 2.726562 -3.296875 2.34375 -3.296875 C 1.957031 -3.296875 1.640625 -3.160156 1.390625 -2.890625 C 1.128906 -2.609375 1 -2.28125 1 -1.90625 C 1 -1.539062 1.128906 -1.21875 1.390625 -0.9375 C 1.640625 -0.65625 1.957031 -0.515625 2.34375 -0.515625 C 2.726562 -0.515625 3.050781 -0.65625 3.3125 -0.9375 C 3.5625 -1.21875 3.6875 -1.539062 3.6875 -1.90625 Z M 4.296875 0 L 3.6875 0 L 3.6875 -0.65625 C 3.65625 -0.601562 3.625 -0.554688 3.59375 -0.515625 C 3.226562 -0.109375 2.78125 0.09375 2.25 0.09375 C 1.71875 0.09375 1.273438 -0.109375 0.921875 -0.515625 C 0.566406 -0.910156 0.390625 -1.375 0.390625 -1.90625 C 0.390625 -2.4375 0.566406 -2.898438 0.921875 -3.296875 C 1.273438 -3.703125 1.71875 -3.90625 2.25 -3.90625 C 2.78125 -3.90625 3.226562 -3.703125 3.59375 -3.296875 C 3.625 -3.253906 3.65625 -3.210938 3.6875 -3.171875 L 3.6875 -3.828125 L 4.296875 -3.828125 Z M 4.296875 0 "/></g></g></g><g fill="#272747" fill-opacity="1"><g transform="translate(44.499368, 122.677319)"><g><path d="M 2.609375 -3.03125 C 2.472656 -3.15625 2.320312 -3.21875 2.15625 -3.21875 C 2 -3.21875 1.867188 -3.175781 1.765625 -3.09375 C 1.648438 -3 1.554688 -2.890625 1.484375 -2.765625 C 1.335938 -2.503906 1.265625 -2.21875 1.265625 -1.90625 L 1.265625 0 L 0.65625 0 L 0.65625 -3.828125 L 1.265625 -3.828125 L 1.265625 -3.03125 L 1.28125 -3.1875 C 1.488281 -3.664062 1.804688 -3.90625 2.234375 -3.90625 C 2.367188 -3.90625 2.492188 -3.878906 2.609375 -3.828125 Z M 2.609375 -3.03125 "/></g></g></g><g fill="#272747" fill-opacity="1"><g transform="translate(47.930514, 122.677319)"><g><path d="M 5.5 -0.015625 L 5.5 -2.40625 C 5.5 -2.800781 5.375 -3.078125 5.125 -3.234375 C 5.039062 -3.285156 4.90625 -3.3125 4.71875 -3.3125 C 4.539062 -3.3125 4.375 -3.257812 4.21875 -3.15625 C 4.0625 -3.050781 3.9375 -2.921875 3.84375 -2.765625 C 3.8125 -2.703125 3.78125 -2.628906 3.75 -2.546875 C 3.75 -2.503906 3.75 -2.457031 3.75 -2.40625 L 3.75 -0.015625 L 3.140625 -0.015625 L 3.140625 -2.40625 C 3.140625 -2.800781 3.015625 -3.078125 2.765625 -3.234375 C 2.679688 -3.285156 2.550781 -3.3125 2.375 -3.3125 C 2.195312 -3.3125 2.03125 -3.257812 1.875 -3.15625 C 1.71875 -3.050781 1.59375 -2.921875 1.5 -2.765625 C 1.375 -2.546875 1.296875 -2.28125 1.265625 -1.96875 L 1.265625 -0.015625 L 0.65625 -0.015625 L 0.65625 -3.84375 L 1.265625 -3.84375 L 1.265625 -3.234375 C 1.378906 -3.429688 1.519531 -3.585938 1.6875 -3.703125 C 1.882812 -3.847656 2.117188 -3.921875 2.390625 -3.921875 C 2.648438 -3.921875 2.863281 -3.882812 3.03125 -3.8125 C 3.195312 -3.71875 3.332031 -3.601562 3.4375 -3.46875 C 3.5 -3.382812 3.550781 -3.296875 3.59375 -3.203125 C 3.707031 -3.410156 3.859375 -3.578125 4.046875 -3.703125 C 4.242188 -3.847656 4.476562 -3.921875 4.75 -3.921875 C 5.007812 -3.921875 5.222656 -3.882812 5.390625 -3.8125 C 5.546875 -3.71875 5.679688 -3.601562 5.796875 -3.46875 C 6.003906 -3.195312 6.109375 -2.84375 6.109375 -2.40625 L 6.109375 -0.015625 Z M 5.5 -0.015625 "/></g></g></g><g fill="#272747" fill-opacity="1"><g transform="translate(55.287451, 122.677319)"><g><path d="M 3.78125 -1.921875 C 3.78125 -2.304688 3.644531 -2.632812 3.375 -2.90625 C 3.101562 -3.175781 2.773438 -3.3125 2.390625 -3.3125 C 2.003906 -3.3125 1.675781 -3.175781 1.40625 -2.90625 C 1.132812 -2.632812 1 -2.304688 1 -1.921875 C 1 -1.546875 1.132812 -1.222656 1.40625 -0.953125 C 1.675781 -0.679688 2.003906 -0.546875 2.390625 -0.546875 C 2.773438 -0.546875 3.101562 -0.679688 3.375 -0.953125 C 3.644531 -1.222656 3.78125 -1.546875 3.78125 -1.921875 Z M 4.390625 -1.921875 C 4.390625 -1.367188 4.195312 -0.898438 3.8125 -0.515625 C 3.40625 -0.128906 2.929688 0.0625 2.390625 0.0625 C 1.847656 0.0625 1.378906 -0.128906 0.984375 -0.515625 C 0.585938 -0.898438 0.390625 -1.367188 0.390625 -1.921875 C 0.390625 -2.472656 0.585938 -2.945312 0.984375 -3.34375 C 1.367188 -3.726562 1.835938 -3.921875 2.390625 -3.921875 C 2.941406 -3.921875 3.414062 -3.726562 3.8125 -3.34375 C 4.195312 -2.945312 4.390625 -2.472656 4.390625 -1.921875 Z M 4.390625 -1.921875 "/></g></g></g><g fill="#272747" fill-opacity="1"><g transform="translate(60.7944, 122.677319)"><g><path d="M 4.390625 0.484375 L 3.140625 -2.59375 L 1.921875 0.484375 L 0.09375 -3.828125 L 0.765625 -3.828125 L 1.90625 -0.875 L 3.140625 -4.015625 L 4.375 -0.875 L 5.53125 -3.828125 L 6.203125 -3.828125 Z M 4.390625 0.484375 "/></g></g></g><g fill="#272747" fill-opacity="1"><g transform="translate(67.81261, 122.677319)"><g><path d="M 4.390625 -2 L 4.390625 -1.671875 L 1.03125 -1.671875 C 1.082031 -1.347656 1.238281 -1.082031 1.5 -0.875 C 1.769531 -0.65625 2.066406 -0.546875 2.390625 -0.546875 C 2.609375 -0.546875 2.816406 -0.597656 3.015625 -0.703125 C 3.210938 -0.796875 3.378906 -0.9375 3.515625 -1.125 L 4.21875 -1.125 C 4.050781 -0.757812 3.804688 -0.472656 3.484375 -0.265625 C 3.148438 -0.046875 2.816406 0.0625 2.484375 0.0625 C 2.140625 0.0625 1.847656 0.0078125 1.609375 -0.09375 C 1.367188 -0.195312 1.160156 -0.335938 0.984375 -0.515625 C 0.585938 -0.898438 0.390625 -1.367188 0.390625 -1.921875 C 0.390625 -2.472656 0.585938 -2.945312 0.984375 -3.34375 C 1.367188 -3.726562 1.835938 -3.921875 2.390625 -3.921875 C 2.921875 -3.921875 3.382812 -3.734375 3.78125 -3.359375 C 4.1875 -2.972656 4.390625 -2.519531 4.390625 -2 Z M 3.75 -2.203125 C 3.675781 -2.523438 3.507812 -2.789062 3.25 -3 C 3 -3.207031 2.710938 -3.3125 2.390625 -3.3125 C 1.890625 -3.3125 1.5 -3.09375 1.21875 -2.65625 C 1.125 -2.507812 1.0625 -2.359375 1.03125 -2.203125 Z M 3.75 -2.203125 "/></g></g></g><g fill="#272747" fill-opacity="1"><g transform="translate(73.27614, 122.677319)"><g/></g></g><g fill="#272747" fill-opacity="1"><g transform="translate(76.351182, 122.677319)"><g><path d="M 2.703125 -5.953125 L 2.1875 -5.953125 C 1.976562 -5.953125 1.84375 -5.90625 1.78125 -5.8125 C 1.71875 -5.71875 1.6875 -5.601562 1.6875 -5.46875 L 1.6875 -3.828125 L 2.703125 -3.828125 L 2.703125 -3.25 L 1.6875 -3.25 L 1.6875 0 L 1.078125 0 L 1.078125 -3.25 L 0.296875 -3.25 L 0.296875 -3.828125 L 1.078125 -3.828125 L 1.078125 -5.296875 C 1.078125 -5.679688 1.171875 -5.984375 1.359375 -6.203125 C 1.535156 -6.410156 1.835938 -6.515625 2.265625 -6.515625 L 2.703125 -6.515625 Z M 2.703125 -5.953125 "/></g></g></g><g fill="#272747" fill-opacity="1"><g transform="translate(80.042886, 122.677319)"><g><path d="M 1.265625 -5.140625 C 1.335938 -5.066406 1.375 -4.976562 1.375 -4.875 C 1.375 -4.757812 1.335938 -4.664062 1.265625 -4.59375 C 1.191406 -4.519531 1.101562 -4.484375 1 -4.484375 C 0.882812 -4.484375 0.789062 -4.519531 0.71875 -4.59375 C 0.644531 -4.664062 0.609375 -4.757812 0.609375 -4.875 C 0.609375 -4.976562 0.644531 -5.066406 0.71875 -5.140625 C 0.789062 -5.210938 0.882812 -5.25 1 -5.25 C 1.101562 -5.25 1.191406 -5.210938 1.265625 -5.140625 Z M 1.296875 0 L 0.6875 0 L 0.6875 -3.828125 L 1.296875 -3.828125 Z M 1.296875 0 "/></g></g></g><g fill="#272747" fill-opacity="1"><g transform="translate(82.761825, 122.677319)"><g><path d="M 1.203125 -0.546875 C 1.359375 -0.441406 1.554688 -0.390625 1.796875 -0.390625 C 2.347656 -0.390625 2.625 -0.597656 2.625 -1.015625 C 2.625 -1.253906 2.425781 -1.441406 2.03125 -1.578125 C 1.863281 -1.628906 1.6875 -1.679688 1.5 -1.734375 C 1.300781 -1.773438 1.117188 -1.832031 0.953125 -1.90625 C 0.753906 -2 0.601562 -2.117188 0.5 -2.265625 C 0.40625 -2.398438 0.359375 -2.5625 0.359375 -2.75 C 0.359375 -3.132812 0.488281 -3.421875 0.75 -3.609375 C 1.019531 -3.804688 1.34375 -3.90625 1.71875 -3.90625 C 2.082031 -3.90625 2.382812 -3.832031 2.625 -3.6875 C 2.875 -3.53125 3.039062 -3.257812 3.125 -2.875 L 2.46875 -2.875 C 2.40625 -3.09375 2.304688 -3.234375 2.171875 -3.296875 C 2.046875 -3.367188 1.882812 -3.40625 1.6875 -3.40625 C 1.5 -3.40625 1.335938 -3.363281 1.203125 -3.28125 C 1.066406 -3.195312 1 -3.070312 1 -2.90625 C 1 -2.726562 1.054688 -2.597656 1.171875 -2.515625 C 1.285156 -2.441406 1.425781 -2.375 1.59375 -2.3125 C 1.757812 -2.257812 1.941406 -2.21875 2.140625 -2.1875 C 2.328125 -2.132812 2.507812 -2.066406 2.6875 -1.984375 C 3.082031 -1.804688 3.28125 -1.507812 3.28125 -1.09375 C 3.28125 -0.6875 3.128906 -0.382812 2.828125 -0.1875 C 2.679688 -0.0820312 2.519531 -0.00390625 2.34375 0.046875 C 2.164062 0.0859375 1.972656 0.109375 1.765625 0.109375 C 0.878906 0.109375 0.367188 -0.28125 0.234375 -1.0625 L 0.875 -1.0625 C 0.9375 -0.8125 1.046875 -0.640625 1.203125 -0.546875 Z M 1.203125 -0.546875 "/></g></g></g><g fill="#272747" fill-opacity="1"><g transform="translate(86.983341, 122.677319)"><g><path d="M 0.09375 0 L 2.59375 -3.25 L 0.234375 -3.25 L 0.234375 -3.828125 L 3.75 -3.828125 L 1.25 -0.5625 L 3.859375 -0.5625 L 3.859375 0 Z M 0.09375 0 "/></g></g></g><g fill="#272747" fill-opacity="1"><g transform="translate(91.665179, 122.677319)"><g><path d="M 1.265625 0 L 0.65625 0 L 0.65625 -6.515625 L 1.265625 -6.515625 L 1.265625 -2.109375 L 2.65625 -3.828125 L 3.46875 -3.828125 L 1.890625 -1.96875 L 3.578125 0 L 2.765625 0 L 1.265625 -1.828125 Z M 1.265625 0 "/></g></g></g><g fill="#272747" fill-opacity="1"><g transform="translate(96.051712, 122.677319)"><g><path d="M 1.265625 -5.140625 C 1.335938 -5.066406 1.375 -4.976562 1.375 -4.875 C 1.375 -4.757812 1.335938 -4.664062 1.265625 -4.59375 C 1.191406 -4.519531 1.101562 -4.484375 1 -4.484375 C 0.882812 -4.484375 0.789062 -4.519531 0.71875 -4.59375 C 0.644531 -4.664062 0.609375 -4.757812 0.609375 -4.875 C 0.609375 -4.976562 0.644531 -5.066406 0.71875 -5.140625 C 0.789062 -5.210938 0.882812 -5.25 1 -5.25 C 1.101562 -5.25 1.191406 -5.210938 1.265625 -5.140625 Z M 1.296875 0 L 0.6875 0 L 0.6875 -3.828125 L 1.296875 -3.828125 Z M 1.296875 0 "/></g></g></g><g fill="#272747" fill-opacity="1"><g transform="translate(98.770651, 122.677319)"><g/></g></g><g fill="#272747" fill-opacity="1"><g transform="translate(101.845693, 122.677319)"><g><path d="M 3.296875 0 L 3.296875 -2.390625 C 3.296875 -2.640625 3.238281 -2.851562 3.125 -3.03125 C 3.007812 -3.207031 2.820312 -3.296875 2.5625 -3.296875 C 2.300781 -3.296875 2.085938 -3.242188 1.921875 -3.140625 C 1.765625 -3.046875 1.632812 -2.921875 1.53125 -2.765625 C 1.351562 -2.472656 1.265625 -2.082031 1.265625 -1.59375 L 1.265625 0 L 0.65625 0 L 0.65625 -3.828125 L 1.265625 -3.828125 L 1.265625 -3.15625 C 1.390625 -3.375 1.550781 -3.550781 1.75 -3.6875 C 1.957031 -3.832031 2.195312 -3.90625 2.46875 -3.90625 C 2.738281 -3.90625 2.957031 -3.863281 3.125 -3.78125 C 3.289062 -3.707031 3.429688 -3.601562 3.546875 -3.46875 C 3.785156 -3.195312 3.90625 -2.835938 3.90625 -2.390625 L 3.90625 0 Z M 3.296875 0 "/></g></g></g><g fill="#272747" fill-opacity="1"><g transform="translate(106.996545, 122.677319)"><g><path d="M 3.6875 -1.90625 C 3.6875 -2.28125 3.5625 -2.609375 3.3125 -2.890625 C 3.050781 -3.160156 2.726562 -3.296875 2.34375 -3.296875 C 1.957031 -3.296875 1.640625 -3.160156 1.390625 -2.890625 C 1.128906 -2.609375 1 -2.28125 1 -1.90625 C 1 -1.539062 1.128906 -1.21875 1.390625 -0.9375 C 1.640625 -0.65625 1.957031 -0.515625 2.34375 -0.515625 C 2.726562 -0.515625 3.050781 -0.65625 3.3125 -0.9375 C 3.5625 -1.21875 3.6875 -1.539062 3.6875 -1.90625 Z M 4.296875 0 L 3.6875 0 L 3.6875 -0.65625 C 3.65625 -0.601562 3.625 -0.554688 3.59375 -0.515625 C 3.226562 -0.109375 2.78125 0.09375 2.25 0.09375 C 1.71875 0.09375 1.273438 -0.109375 0.921875 -0.515625 C 0.566406 -0.910156 0.390625 -1.375 0.390625 -1.90625 C 0.390625 -2.4375 0.566406 -2.898438 0.921875 -3.296875 C 1.273438 -3.703125 1.71875 -3.90625 2.25 -3.90625 C 2.78125 -3.90625 3.226562 -3.703125 3.59375 -3.296875 C 3.625 -3.253906 3.65625 -3.210938 3.6875 -3.171875 L 3.6875 -3.828125 L 4.296875 -3.828125 Z M 4.296875 0 "/></g></g></g><g fill="#272747" fill-opacity="1"><g transform="translate(112.677201, 122.677319)"><g/></g></g><g fill="#272747" fill-opacity="1"><g transform="translate(115.752243, 122.677319)"><g><path d="M 5.5 -0.015625 L 5.5 -2.40625 C 5.5 -2.800781 5.375 -3.078125 5.125 -3.234375 C 5.039062 -3.285156 4.90625 -3.3125 4.71875 -3.3125 C 4.539062 -3.3125 4.375 -3.257812 4.21875 -3.15625 C 4.0625 -3.050781 3.9375 -2.921875 3.84375 -2.765625 C 3.8125 -2.703125 3.78125 -2.628906 3.75 -2.546875 C 3.75 -2.503906 3.75 -2.457031 3.75 -2.40625 L 3.75 -0.015625 L 3.140625 -0.015625 L 3.140625 -2.40625 C 3.140625 -2.800781 3.015625 -3.078125 2.765625 -3.234375 C 2.679688 -3.285156 2.550781 -3.3125 2.375 -3.3125 C 2.195312 -3.3125 2.03125 -3.257812 1.875 -3.15625 C 1.71875 -3.050781 1.59375 -2.921875 1.5 -2.765625 C 1.375 -2.546875 1.296875 -2.28125 1.265625 -1.96875 L 1.265625 -0.015625 L 0.65625 -0.015625 L 0.65625 -3.84375 L 1.265625 -3.84375 L 1.265625 -3.234375 C 1.378906 -3.429688 1.519531 -3.585938 1.6875 -3.703125 C 1.882812 -3.847656 2.117188 -3.921875 2.390625 -3.921875 C 2.648438 -3.921875 2.863281 -3.882812 3.03125 -3.8125 C 3.195312 -3.71875 3.332031 -3.601562 3.4375 -3.46875 C 3.5 -3.382812 3.550781 -3.296875 3.59375 -3.203125 C 3.707031 -3.410156 3.859375 -3.578125 4.046875 -3.703125 C 4.242188 -3.847656 4.476562 -3.921875 4.75 -3.921875 C 5.007812 -3.921875 5.222656 -3.882812 5.390625 -3.8125 C 5.546875 -3.71875 5.679688 -3.601562 5.796875 -3.46875 C 6.003906 -3.195312 6.109375 -2.84375 6.109375 -2.40625 L 6.109375 -0.015625 Z M 5.5 -0.015625 "/></g></g></g><g fill="#272747" fill-opacity="1"><g transform="translate(123.109178, 122.677319)"><g><path d="M 3.6875 -1.90625 C 3.6875 -2.28125 3.5625 -2.609375 3.3125 -2.890625 C 3.050781 -3.160156 2.726562 -3.296875 2.34375 -3.296875 C 1.957031 -3.296875 1.640625 -3.160156 1.390625 -2.890625 C 1.128906 -2.609375 1 -2.28125 1 -1.90625 C 1 -1.539062 1.128906 -1.21875 1.390625 -0.9375 C 1.640625 -0.65625 1.957031 -0.515625 2.34375 -0.515625 C 2.726562 -0.515625 3.050781 -0.65625 3.3125 -0.9375 C 3.5625 -1.21875 3.6875 -1.539062 3.6875 -1.90625 Z M 4.296875 0 L 3.6875 0 L 3.6875 -0.65625 C 3.65625 -0.601562 3.625 -0.554688 3.59375 -0.515625 C 3.226562 -0.109375 2.78125 0.09375 2.25 0.09375 C 1.71875 0.09375 1.273438 -0.109375 0.921875 -0.515625 C 0.566406 -0.910156 0.390625 -1.375 0.390625 -1.90625 C 0.390625 -2.4375 0.566406 -2.898438 0.921875 -3.296875 C 1.273438 -3.703125 1.71875 -3.90625 2.25 -3.90625 C 2.78125 -3.90625 3.226562 -3.703125 3.59375 -3.296875 C 3.625 -3.253906 3.65625 -3.210938 3.6875 -3.171875 L 3.6875 -3.828125 L 4.296875 -3.828125 Z M 4.296875 0 "/></g></g></g><g fill="#272747" fill-opacity="1"><g transform="translate(128.789834, 122.677319)"><g><path d="M 0.171875 -3.25 L 0.171875 -3.828125 L 1.125 -3.828125 L 1.125 -5.3125 L 1.734375 -5.3125 L 1.734375 -3.828125 L 2.6875 -3.828125 L 2.6875 -3.25 L 1.734375 -3.25 L 1.734375 0 L 1.125 0 L 1.125 -3.25 Z M 0.171875 -3.25 "/></g></g></g><g fill="#272747" fill-opacity="1"><g transform="translate(132.377311, 122.677319)"><g><path d="M 3.296875 -0.65625 C 3.003906 -0.164062 2.578125 0.078125 2.015625 0.078125 C 1.585938 0.078125 1.25 -0.0625 1 -0.34375 C 0.769531 -0.625 0.65625 -0.988281 0.65625 -1.4375 L 0.65625 -3.828125 L 1.265625 -3.828125 L 1.265625 -1.4375 C 1.265625 -1.1875 1.320312 -0.972656 1.4375 -0.796875 C 1.539062 -0.617188 1.722656 -0.53125 1.984375 -0.53125 C 2.460938 -0.53125 2.800781 -0.679688 3 -0.984375 C 3.195312 -1.273438 3.296875 -1.6875 3.296875 -2.21875 L 3.296875 -3.828125 L 3.90625 -3.828125 L 3.90625 0 L 3.296875 0 Z M 3.296875 -0.65625 "/></g></g></g><g fill="#272747" fill-opacity="1"><g transform="translate(137.528163, 122.677319)"><g><path d="M 2.609375 -3.03125 C 2.472656 -3.15625 2.320312 -3.21875 2.15625 -3.21875 C 2 -3.21875 1.867188 -3.175781 1.765625 -3.09375 C 1.648438 -3 1.554688 -2.890625 1.484375 -2.765625 C 1.335938 -2.503906 1.265625 -2.21875 1.265625 -1.90625 L 1.265625 0 L 0.65625 0 L 0.65625 -3.828125 L 1.265625 -3.828125 L 1.265625 -3.03125 L 1.28125 -3.1875 C 1.488281 -3.664062 1.804688 -3.90625 2.234375 -3.90625 C 2.367188 -3.90625 2.492188 -3.878906 2.609375 -3.828125 Z M 2.609375 -3.03125 "/></g></g></g><g fill="#272747" fill-opacity="1"><g transform="translate(140.959308, 122.677319)"><g><path d="M 4.390625 -2 L 4.390625 -1.671875 L 1.03125 -1.671875 C 1.082031 -1.347656 1.238281 -1.082031 1.5 -0.875 C 1.769531 -0.65625 2.066406 -0.546875 2.390625 -0.546875 C 2.609375 -0.546875 2.816406 -0.597656 3.015625 -0.703125 C 3.210938 -0.796875 3.378906 -0.9375 3.515625 -1.125 L 4.21875 -1.125 C 4.050781 -0.757812 3.804688 -0.472656 3.484375 -0.265625 C 3.148438 -0.046875 2.816406 0.0625 2.484375 0.0625 C 2.140625 0.0625 1.847656 0.0078125 1.609375 -0.09375 C 1.367188 -0.195312 1.160156 -0.335938 0.984375 -0.515625 C 0.585938 -0.898438 0.390625 -1.367188 0.390625 -1.921875 C 0.390625 -2.472656 0.585938 -2.945312 0.984375 -3.34375 C 1.367188 -3.726562 1.835938 -3.921875 2.390625 -3.921875 C 2.921875 -3.921875 3.382812 -3.734375 3.78125 -3.359375 C 4.1875 -2.972656 4.390625 -2.519531 4.390625 -2 Z M 3.75 -2.203125 C 3.675781 -2.523438 3.507812 -2.789062 3.25 -3 C 3 -3.207031 2.710938 -3.3125 2.390625 -3.3125 C 1.890625 -3.3125 1.5 -3.09375 1.21875 -2.65625 C 1.125 -2.507812 1.0625 -2.359375 1.03125 -2.203125 Z M 3.75 -2.203125 "/></g></g></g></svg>